<?xml version="1.0" encoding="iso-8859-1"?>
<!-- Generator: Adobe Illustrator 19.0.0, SVG Export Plug-In . SVG Version: 6.00 Build 0)  -->
<svg version="1.1" id="Capa_1" xmlns="http://www.w3.org/2000/svg" xmlns:xlink="http://www.w3.org/1999/xlink" x="0px" y="0px"
	 viewBox="0 0 512 512" style="enable-background:new 0 0 512 512;" xml:space="preserve">
<g>
	<g>
		<path d="M467,123.57h-42.979v328.495H467c24.813,0,45-20.187,45-45V168.57C512,143.757,491.813,123.57,467,123.57z"/>
	</g>
</g>
<g>
	<g>
		<path d="M326.666,123.57v-18.635c0-24.813-20.187-45-45-45h-51.331c-24.813,0-45,20.187-45,45v18.635H117.98v328.495h276.041
			V123.57H326.666z M296.665,123.57h-81.331v-18.635h0c0-8.271,6.729-15,15-15h51.331c8.271,0,15,6.729,15,15V123.57z"/>
	</g>
</g>
<g>
	<g>
		<path d="M45,123.57c-24.813,0-45,20.187-45,45v238.495c0,24.813,20.187,45,45,45h42.979V123.57H45z"/>
	</g>
</g>
<g>
</g>
<g>
</g>
<g>
</g>
<g>
</g>
<g>
</g>
<g>
</g>
<g>
</g>
<g>
</g>
<g>
</g>
<g>
</g>
<g>
</g>
<g>
</g>
<g>
</g>
<g>
</g>
<g>
</g>
</svg>
