<?xml version="1.0" encoding="iso-8859-1"?>
<!-- Generator: Adobe Illustrator 19.0.0, SVG Export Plug-In . SVG Version: 6.00 Build 0)  -->
<svg version="1.1" id="Capa_1" xmlns="http://www.w3.org/2000/svg" xmlns:xlink="http://www.w3.org/1999/xlink" x="0px" y="0px"
	 viewBox="0 0 512 512" style="enable-background:new 0 0 512 512;" xml:space="preserve">
<g>
	<g>
		<path d="M467,123.57H326.666v-18.635c0-24.813-20.187-45-45-45h-51.331c-24.813,0-45,20.187-45,45v18.635H45
			c-24.813,0-45,20.187-45,45v238.495c0,24.813,20.187,45,45,45h422c24.813,0,45-20.187,45-45V168.57
			C512,143.757,491.813,123.57,467,123.57z M230.334,89.935h51.331c8.271,0,15,6.729,15,15v18.635h-81.331v-18.635h0
			C215.334,96.664,222.063,89.935,230.334,89.935z M87.979,422.065H45c-8.271,0-15-6.729-15-15V168.57c0-8.271,6.729-15,15-15
			h42.979V422.065z M394.02,422.065H117.979V153.57H394.02V422.065z M482,407.065c0,8.271-6.729,15-15,15h-42.979V153.57H467
			c8.271,0,15,6.729,15,15V407.065z"/>
	</g>
</g>
<g>
</g>
<g>
</g>
<g>
</g>
<g>
</g>
<g>
</g>
<g>
</g>
<g>
</g>
<g>
</g>
<g>
</g>
<g>
</g>
<g>
</g>
<g>
</g>
<g>
</g>
<g>
</g>
<g>
</g>
</svg>
