<svg width="16" height="16" viewBox="0 0 16 16" fill="none" xmlns="http://www.w3.org/2000/svg">
<g clip-path="url(#clip0_800_23000)">
<path d="M6.7959 14.7989C6.7959 15.4622 7.33346 15.9999 7.99659 15.9999H8.00377C8.6669 15.9999 9.20446 15.4622 9.20446 14.7989V12.3376H6.7959V14.7989Z" fill="#2799F0"/>
<path d="M5.74978 6.20239H5.42041V6.86102H5.74978C5.93135 6.86102 6.07916 6.71317 6.07916 6.53155C6.07916 6.34992 5.93135 6.20239 5.74978 6.20239Z" fill="#2799F0"/>
<path d="M5.74978 4.60571H5.42041V5.26465H5.74978C5.93135 5.26465 6.07916 5.11681 6.07916 4.93518C6.07916 4.75356 5.93135 4.60571 5.74978 4.60571Z" fill="#2799F0"/>
<path d="M13.3028 2.55662L11.1603 0.393844C10.9125 0.143469 10.5681 0 10.2159 0H5.78406C5.43187 0 5.0875 0.143469 4.83969 0.393875L2.69719 2.55662C2.44906 2.80703 2.3125 3.13897 2.3125 3.49156V7.92872C2.3125 8.2835 2.45094 8.61734 2.70187 8.86834L4.84188 11.0071C5.09281 11.2578 5.42656 11.3959 5.78156 11.3959H10.2184C10.5734 11.3959 10.9072 11.2578 11.1581 11.0071L13.2981 8.86834C13.5491 8.61734 13.6875 8.2835 13.6875 7.92872V3.49156C13.6875 3.13897 13.5509 2.80703 13.3028 2.55662V2.55662ZM7.01687 6.53147C7.01687 7.23041 6.44844 7.79869 5.75 7.79869H4.95188C4.69313 7.79869 4.48313 7.58894 4.48313 7.32981V4.13675C4.48313 3.87794 4.69313 3.66788 4.95188 3.66788H5.75C6.44844 3.66788 7.01687 4.23647 7.01687 4.93509C7.01687 5.23738 6.91031 5.51525 6.73313 5.73344C6.91031 5.95131 7.01687 6.22919 7.01687 6.53147ZM8.45187 7.32981C8.45187 7.58894 8.24219 7.79869 7.98313 7.79869C7.72438 7.79869 7.51438 7.58894 7.51438 7.32981V4.13675C7.51438 3.87794 7.72438 3.66788 7.98313 3.66788C8.24219 3.66788 8.45187 3.87794 8.45187 4.13675V7.32981ZM11.5169 6.64431C11.5169 7.28075 10.9991 7.79869 10.3625 7.79869H9.45187C9.19312 7.79869 8.98312 7.58894 8.98312 7.32981V4.13675C8.98312 3.87794 9.19312 3.66788 9.45187 3.66788H10.3625C10.9991 3.66788 11.5169 4.18584 11.5169 4.82256V6.64431Z" fill="#2799F0"/>
<path d="M10.3623 4.60571H9.92041V6.86103H10.3623C10.482 6.86103 10.5792 6.76381 10.5792 6.6444V4.82265C10.5792 4.70293 10.482 4.60571 10.3623 4.60571Z" fill="#2799F0"/>
</g>
<defs>
<clipPath id="clip0_800_23000">
<rect width="16" height="16" fill="white"/>
</clipPath>
</defs>
</svg>
