<?xml version="1.0" encoding="UTF-8" standalone="no"?>
<!DOCTYPE svg PUBLIC "-//W3C//DTD SVG 1.1//EN" "http://www.w3.org/Graphics/SVG/1.1/DTD/svg11.dtd">
<svg width="100%" height="100%" viewBox="0 0 512 512" version="1.1" xmlns="http://www.w3.org/2000/svg" xmlns:xlink="http://www.w3.org/1999/xlink" xml:space="preserve" xmlns:serif="http://www.serif.com/" style="fill-rule:evenodd;clip-rule:evenodd;stroke-linejoin:round;stroke-miterlimit:2;">
    <g id="clap--2-.svg" serif:id="clap (2).svg" transform="matrix(1,0,0,1,256,256)">
        <g transform="matrix(1,0,0,1,-256,-256)">
            <clipPath id="_clip1">
                <rect x="0" y="0" width="512" height="512"/>
            </clipPath>
            <g clip-path="url(#_clip1)">
                <path d="M133.999,179.989L134.089,343.254C134.089,344.274 133.769,345.274 133.189,346.114L31.82,491.269C27.18,497.908 31.94,506.998 40.02,506.998L40.02,511.948L15.01,511.958C6.72,511.958 -0,505.249 -0,496.959L-0,423.216L68.79,324.715L72.71,161.45C75.66,145.39 96.539,132.323 114.699,129.317C130.566,126.691 142.586,137.589 155.419,144.562C142.699,151.261 133.999,164.63 133.999,179.989Z" style="fill:rgb(238,246,254);fill-rule:nonzero;"/>
                <path d="M292.108,96.996C219.034,199.916 224.571,192.098 223.409,194.207C222.28,196.301 219.891,197.241 217.789,196.677C215.569,196.117 214.009,194.127 214.009,191.837L214.009,179.949C213.979,160.481 199.979,144.212 181.509,140.682C192.149,125.683 208.959,106.415 232.519,73.219C233.562,71.748 235.737,71.678 236.991,70.863C240.115,68.831 242.728,65.377 246.018,64.216C255.088,61.018 263.568,60.065 273.648,67.21C285.048,75.289 294.918,84.158 292.108,96.996Z" style="fill:rgb(238,246,254);fill-rule:nonzero;"/>
                <path d="M489.16,277.776C489.663,277.068 486.842,273.227 486.801,272.306C486.62,268.234 485.135,265.575 485.203,262.667C485.446,252.09 483.535,246.727 472.146,238.65C456.918,227.849 444.816,223.437 434.014,238.663L460.05,201.963C470.852,186.736 467.264,165.637 452.036,154.836C436.808,144.035 415.707,147.623 404.905,162.849L419.369,142.46C430.17,127.233 422.583,111.134 407.355,100.333C392.127,89.533 375.025,88.12 364.223,103.346L348.375,125.685C357.383,110.682 351.453,98.042 336.941,87.75C327.926,81.356 320.554,80.551 311.35,81.669C306.693,82.235 301.717,83.445 297.126,85.974C295.463,86.89 292.981,87.111 291.809,88.762C215.42,196.443 220.481,189.111 219.01,191.835L219.005,179.945C218.975,155.288 199.017,134.968 173.99,134.975C149.175,134.984 128.994,155.176 129.002,179.988L129.084,343.253L27.718,488.413C20.781,498.349 27.919,512.004 40.024,511.999L278.025,511.891C282.827,511.888 287.338,509.587 290.159,505.7L307.936,481.202L343.729,475.129C347.65,474.464 351.147,472.267 353.45,469.024C539.932,206.37 404.743,396.773 489.16,277.776Z" style="fill:rgb(238,246,254);fill-rule:nonzero;"/>
            </g>
        </g>
    </g>
    <g id="clap--1-.svg" serif:id="clap (1).svg" transform="matrix(1,0,0,1,256,256)">
        <g transform="matrix(1,0,0,1,-256,-256)">
            <clipPath id="_clip2">
                <rect x="0" y="0" width="512" height="512"/>
            </clipPath>
            <g clip-path="url(#_clip2)">
                <g>
                    <path d="M447.072,61.672C451.639,61.672 456.149,59.594 459.095,55.655L480.05,27.638C485.012,21.004 483.656,11.604 477.023,6.642C470.387,1.679 460.988,3.036 456.028,9.669L435.072,37.687C427.644,47.617 434.844,61.672 447.072,61.672Z" style="fill:rgb(255,195,6);fill-rule:nonzero;"/>
                    <path d="M511.68,84.612C509.988,76.503 502.037,71.306 493.931,72.994L467.446,78.524C459.337,80.217 454.135,88.164 455.828,96.273C457.524,104.394 465.48,109.582 473.576,107.891L500.062,102.361C508.171,100.667 513.372,92.721 511.68,84.612Z" style="fill:rgb(255,195,6);fill-rule:nonzero;"/>
                    <path d="M381.608,45.449C383.239,53.56 391.136,58.83 399.271,57.196C407.392,55.562 412.651,47.654 411.017,39.533L405.487,12.045C403.853,3.924 395.952,-1.341 387.823,0.298C379.703,1.932 374.444,9.84 376.078,17.962L381.608,45.449Z" style="fill:rgb(255,195,6);fill-rule:nonzero;"/>
                </g>
                <path d="M458.291,218.055L459.786,215.951C478.487,189.631 464.159,152.451 432.285,145.819C436.702,128.335 430.307,109.128 414.746,98.069C397.939,86.125 375.67,87.405 360.372,99.78C348.102,81.411 323.267,74.167 302.216,84.521C286.63,55.669 244.685,52.406 224.821,80.401C213.94,95.736 199.417,116.18 185.079,136.354C173.041,133.335 159.907,135.337 149.033,142.672C140.775,132.634 128.265,126.221 114.284,126.218C89.51,126.212 69.279,146.357 69.273,171.208L69.24,324.523L2.679,420.447C-2.045,427.254 -0.355,436.599 6.45,441.322C13.258,446.046 22.603,444.355 27.325,437.55L96.562,337.771C98.304,335.261 99.238,332.278 99.239,329.223L99.273,171.215C99.275,162.927 105.98,156.217 114.273,156.217C122.535,156.217 129.274,162.938 129.272,171.223C129.272,171.223 129.135,166.886 129.135,343.278L27.707,488.405C22.962,495.195 24.619,504.547 31.409,509.293C38.201,514.04 47.551,512.38 52.296,505.591L156.431,356.593C158.192,354.073 159.136,351.074 159.136,348C159.136,226.267 159.269,189.195 159.271,178.094C160.213,170.723 166.513,165.002 174.137,165.002C182.408,165.002 189.136,171.731 189.136,180.002L189.136,239.001C189.136,245.528 193.357,251.306 199.574,253.291C205.794,255.277 212.58,253.013 216.36,247.693C255.561,192.529 270.333,171.804 309.545,116.518C317.551,105.229 335.408,108.949 337.601,121.965C338.135,125.137 337.585,128.318 336.069,131.098C332.943,135.497 315.747,159.82 279.6,210.559C274.793,217.305 276.366,226.671 283.113,231.478C289.863,236.284 299.225,234.711 304.033,227.965C364.254,143.438 370.66,134.212 376.453,126.061C381.257,119.303 390.611,117.721 397.369,122.524C404.111,127.315 405.698,136.697 400.907,143.439C392.373,155.448 337.735,232.331 328.498,245.329C323.699,252.081 325.282,261.446 332.035,266.245C338.789,271.044 348.154,269.459 352.951,262.707L410.884,181.187C415.687,174.439 425.035,172.854 431.795,177.658C438.536,182.449 440.124,191.832 435.333,198.574C428.838,207.713 383.775,271.123 377.405,280.086C370.34,290.028 377.512,303.775 389.618,303.775C394.31,303.775 398.932,301.58 401.857,297.464L433.722,252.626C438.515,245.889 447.895,244.302 454.634,249.093C461.376,253.885 462.963,263.268 458.172,270.01L332.592,446.717L296.887,452.756C293.018,453.411 289.558,455.556 287.252,458.732L265.862,488.184C260.994,494.887 262.481,504.267 269.184,509.136C275.888,514.004 285.268,512.515 290.135,505.813L307.926,481.315L343.72,475.261C347.643,474.597 351.142,472.403 353.446,469.161L482.624,287.389C500.603,262.091 488.072,226.522 458.291,218.055ZM210.08,152.962C224.243,133.032 238.541,112.907 249.287,97.762C257.416,86.306 275.183,90.385 277.341,103.217C277.846,106.219 277.375,109.227 276.04,111.898C258.832,136.143 236.477,167.607 219.135,192.008L219.135,180.002C219.135,169.861 215.76,160.495 210.08,152.962Z" style="fill:rgb(39,153,240);fill-rule:nonzero;"/>
            </g>
        </g>
    </g>
</svg>
