<svg id="Capa_1" enable-background="new 0 0 511.997 511.997" height="512" viewBox="0 0 511.997 511.997" width="512" xmlns="http://www.w3.org/2000/svg"><g><path d="m427.075 0h-340.391c-8.284 0-15 6.716-15 15v44.751h-16.762c-8.284 0-15 6.716-15 15s6.716 15 15 15h16.762v42h-16.762c-8.284 0-15 6.716-15 15s6.716 15 15 15h16.762v42h-16.762c-8.284 0-15 6.716-15 15s6.716 15 15 15h16.762v42h-16.762c-8.284 0-15 6.716-15 15s6.716 15 15 15h16.762v42h-16.762c-8.284 0-15 6.716-15 15s6.716 15 15 15h16.762v42h-16.762c-8.284 0-15 6.716-15 15s6.716 15 15 15h16.762v47.246c0 8.284 6.716 15 15 15h340.391c24.813 0 45-20.187 45-45v-421.997c0-24.813-20.187-45-45-45zm15 466.997c0 8.271-6.729 15-15 15h-325.391v-32.246h19.654c8.284 0 15-6.716 15-15s-6.716-15-15-15h-19.654v-42h19.654c8.284 0 15-6.716 15-15s-6.716-15-15-15h-19.654v-42h19.654c8.284 0 15-6.716 15-15s-6.716-15-15-15h-19.654v-42h19.654c8.284 0 15-6.716 15-15s-6.716-15-15-15h-19.654v-42h19.654c8.284 0 15-6.716 15-15s-6.716-15-15-15h-19.654v-42h19.654c8.284 0 15-6.716 15-15s-6.716-15-15-15h-19.654v-29.751h325.391c8.271 0 15 6.729 15 15z"/><path d="m331.384 251.846c10.646-12.284 17.11-28.285 17.11-45.777 0-38.599-31.402-70-70-70s-70 31.401-70 70c0 17.493 6.464 33.494 17.11 45.777-27.077 11.326-46.154 38.085-46.154 69.223v29.646c0 8.284 6.716 15 15 15h168.087c8.284 0 15-6.716 15-15v-29.646c.001-31.138-19.076-57.898-46.153-69.223zm-52.89-85.778c22.056 0 40 17.944 40 40s-17.944 40-40 40-40-17.944-40-40c0-22.055 17.944-40 40-40zm69.044 169.647h-138.088v-14.646c0-24.813 20.187-45 45-45h48.087c24.813 0 45 20.187 45 45v14.646z"/></g></svg>