<?xml version="1.0" encoding="UTF-8"?>
<svg xmlns="http://www.w3.org/2000/svg" xmlns:xlink="http://www.w3.org/1999/xlink" xmlns:svgjs="http://svgjs.com/svgjs" version="1.1" width="512" height="512" x="0" y="0" viewBox="0 0 512 512" style="enable-background:new 0 0 512 512" xml:space="preserve" class="">
  <g transform="matrix(1,0,0,1,0,100)">
    <path xmlns="http://www.w3.org/2000/svg" d="m470.332031 0h-428.664062c-22.976563 0-41.667969 18.691406-41.667969 41.667969v234.261719c0 22.976562 18.691406 41.667968 41.667969 41.667968h428.664062c22.976563 0 41.667969-18.691406 41.667969-41.667968v-234.261719c0-22.976563-18.691406-41.667969-41.667969-41.667969zm10.585938 275.925781c0 5.839844-4.75 10.589844-10.585938 10.589844h-428.664062c-5.835938 0-10.585938-4.75-10.585938-10.589844v-234.257812c0-5.835938 4.75-10.585938 10.585938-10.585938h428.664062c5.835938 0 10.585938 4.75 10.585938 10.585938zm0 0" fill="#333333" data-original="#000000" style="" class=""/>
    <path xmlns="http://www.w3.org/2000/svg" d="m206.382812 154.441406c17.847657-21.878906 16.578126-54.253906-3.808593-74.640625-21.738281-21.742187-57.117188-21.742187-78.859375 0-20.386719 20.386719-21.65625 52.761719-3.808594 74.640625-15.640625 8.050782-29.042969 20.386719-38.253906 35.925782-7.792969 13.144531-7.917969 28.953124-.324219 42.285156 7.664063 13.449218 21.460937 21.476562 36.914063 21.476562h89.804687c15.449219 0 29.25-8.027344 36.910156-21.476562 7.59375-13.332032 7.472657-29.140625-.320312-42.285156-9.210938-15.539063-22.613281-27.875-38.253907-35.925782zm11.566407 62.824219c-.988281 1.738281-3.9375 5.78125-9.902344 5.78125h-89.804687c-5.96875 0-8.914063-4.042969-9.90625-5.78125-.957032-1.679687-2.871094-6.121094.050781-11.050781 11.417969-19.257813 32.398437-31.222656 54.757812-31.222656 22.355469 0 43.335938 11.964843 54.753907 31.222656 2.921874 4.929687 1.011718 9.371094.050781 11.050781zm-72.253907-115.488281c4.808594-4.8125 11.128907-7.214844 17.449219-7.214844 6.320313 0 12.640625 2.402344 17.453125 7.214844 9.621094 9.621094 9.621094 25.28125 0 34.902344-9.625 9.625-25.28125 9.625-34.902344 0-9.625-9.621094-9.625-25.28125 0-34.902344zm0 0" fill="#333333" data-original="#000000" style="" class=""/>
    <path xmlns="http://www.w3.org/2000/svg" d="m430.898438 84.488281h-107.671876c-8.582031 0-15.539062 6.957031-15.539062 15.539063 0 8.585937 6.957031 15.542968 15.539062 15.542968h107.671876c8.582031 0 15.542968-6.957031 15.542968-15.542968 0-8.582032-6.960937-15.539063-15.542968-15.539063zm0 0" fill="#333333" data-original="#000000" style="" class=""/>
    <path xmlns="http://www.w3.org/2000/svg" d="m430.898438 143.257812h-107.671876c-8.582031 0-15.539062 6.957032-15.539062 15.539063 0 8.585937 6.957031 15.542969 15.539062 15.542969h107.671876c8.582031 0 15.542968-6.957032 15.542968-15.542969 0-8.582031-6.960937-15.539063-15.542968-15.539063zm0 0" fill="#333333" data-original="#000000" style="" class=""/>
    <path xmlns="http://www.w3.org/2000/svg" d="m407.921875 202.027344h-84.695313c-8.582031 0-15.539062 6.957031-15.539062 15.539062 0 8.585938 6.957031 15.542969 15.539062 15.542969h84.695313c8.582031 0 15.542969-6.957031 15.542969-15.542969 0-8.582031-6.960938-15.539062-15.542969-15.539062zm0 0" fill="#333333" data-original="#000000" style="" class=""/>
  </g>
</svg>
