<svg height="512pt" viewBox="0 -97 512 512" width="512pt" xmlns="http://www.w3.org/2000/svg"><path d="m180.597656 136.679688c9.621094-9.621094 9.621094-25.277344 0-34.902344-4.8125-4.8125-11.132812-7.214844-17.453125-7.214844-6.320312 0-12.640625 2.402344-17.449219 7.214844-9.625 9.621094-9.625 25.28125 0 34.902344 9.621094 9.625 25.277344 9.625 34.902344 0zm0 0"/><path d="m163.144531 174.992188c-22.355469 0-43.335937 11.964843-54.753906 31.222656-2.921875 4.929687-1.011719 9.371094-.050781 11.050781.988281 1.738281 3.9375 5.78125 9.902344 5.78125h89.804687c5.96875 0 8.914063-4.042969 9.90625-5.78125.957031-1.679687 2.867187-6.121094-.050781-11.050781-11.417969-19.257813-32.398438-31.222656-54.757813-31.222656zm0 0"/><path d="m470.332031 0h-428.664062c-22.976563 0-41.667969 18.691406-41.667969 41.667969v234.261719c0 22.976562 18.691406 41.667968 41.667969 41.667968h428.664062c22.976563 0 41.667969-18.691406 41.667969-41.667968v-234.261719c0-22.976563-18.691406-41.667969-41.667969-41.667969zm-225.375 232.652344c-7.660156 13.449218-21.457031 21.476562-36.910156 21.476562h-89.804687c-15.449219 0-29.25-8.027344-36.910157-21.476562-7.59375-13.332032-7.472656-29.140625.320313-42.285156 9.210937-15.539063 22.613281-27.875 38.253906-35.925782-17.847656-21.878906-16.578125-54.253906 3.808594-74.640625 21.746094-21.742187 57.121094-21.742187 78.859375 0 20.386719 20.386719 21.65625 52.761719 3.808593 74.640625 15.640626 8.050782 29.046876 20.386719 38.257813 35.925782 7.792969 13.144531 7.910156 28.953124.316406 42.285156zm162.964844.457031h-84.695313c-8.582031 0-15.539062-6.957031-15.539062-15.542969 0-8.582031 6.957031-15.539062 15.539062-15.539062h84.695313c8.582031 0 15.542969 6.957031 15.542969 15.539062 0 8.585938-6.960938 15.542969-15.542969 15.542969zm22.976563-58.769531h-107.671876c-8.582031 0-15.539062-6.957032-15.539062-15.542969 0-8.582031 6.957031-15.539063 15.539062-15.539063h107.671876c8.582031 0 15.542968 6.957032 15.542968 15.539063 0 8.585937-6.960937 15.542969-15.542968 15.542969zm0-58.769532h-107.671876c-8.582031 0-15.539062-6.957031-15.539062-15.542968 0-8.582032 6.957031-15.539063 15.539062-15.539063h107.671876c8.582031 0 15.542968 6.957031 15.542968 15.539063 0 8.585937-6.960937 15.542968-15.542968 15.542968zm0 0"/></svg>