<?xml version="1.0" encoding="iso-8859-1"?>
<!-- Generator: Adobe Illustrator 19.0.0, SVG Export Plug-In . SVG Version: 6.00 Build 0)  -->
<svg version="1.1" id="Layer_1" xmlns="http://www.w3.org/2000/svg" xmlns:xlink="http://www.w3.org/1999/xlink" x="0" y="0"
	 viewBox="0 0 512 512" style="enable-background:new 0 0 512 512;" xml:space="preserve">
<g>
	<g>
		<path d="M493.268,74.927h-47.206c-8.035-26.273-32.505-45.437-61.371-45.437c-28.867,0-53.337,19.164-61.371,45.437H18.732
			C8.387,74.927,0,83.314,0,93.658c0,10.345,8.387,18.732,18.732,18.732h304.588c8.035,26.273,32.505,45.437,61.373,45.437
			c28.868,0,53.337-19.164,61.37-45.437h47.206c10.345,0,18.732-8.387,18.732-18.732C512,83.314,503.613,74.927,493.268,74.927z
			 M384.691,120.364c-14.724,0-26.705-11.98-26.705-26.705c0-14.726,11.981-26.705,26.705-26.705
			c14.726,0,26.704,11.98,26.704,26.705C411.395,108.384,399.415,120.364,384.691,120.364z"/>
	</g>
</g>
<g>
	<g>
		<path d="M493.268,237.268H188.681c-8.035-26.273-32.505-45.437-61.373-45.437s-53.337,19.164-61.37,45.437H18.732
			C8.387,237.268,0,245.655,0,256s8.387,18.732,18.732,18.732h47.206c8.035,26.273,32.505,45.437,61.371,45.437
			c28.867,0,53.338-19.164,61.373-45.437h304.586c10.345,0,18.732-8.387,18.732-18.732C512,245.655,503.613,237.268,493.268,237.268
			z M127.309,282.705c-14.726,0-26.704-11.98-26.704-26.705s11.98-26.705,26.704-26.705c14.724,0,26.705,11.98,26.705,26.705
			S142.034,282.705,127.309,282.705z"/>
	</g>
</g>
<g>
	<g>
		<path d="M493.268,399.61h-47.206c-8.035-26.273-32.505-45.437-61.371-45.437c-28.867,0-53.337,19.164-61.371,45.437H18.732
			C8.387,399.61,0,407.997,0,418.341c0,10.345,8.387,18.732,18.732,18.732h304.588c8.035,26.273,32.505,45.437,61.373,45.437
			c28.868,0,53.337-19.164,61.371-45.437h47.205c10.345,0,18.732-8.387,18.732-18.732C512,407.997,503.613,399.61,493.268,399.61z
			 M384.691,445.047c-14.726,0-26.705-11.979-26.705-26.705s11.98-26.705,26.705-26.705s26.704,11.98,26.704,26.705
			S399.416,445.047,384.691,445.047z"/>
	</g>
</g>
<g>
</g>
<g>
</g>
<g>
</g>
<g>
</g>
<g>
</g>
<g>
</g>
<g>
</g>
<g>
</g>
<g>
</g>
<g>
</g>
<g>
</g>
<g>
</g>
<g>
</g>
<g>
</g>
<g>
</g>
</svg>
