<svg width="16" height="16" viewBox="0 0 16 16" fill="none" xmlns="http://www.w3.org/2000/svg">
<path d="M14.9282 7.76477C14.7988 7.54058 14.5121 7.46364 14.2879 7.59321L12.9835 8.34636C12.7593 8.47583 12.6824 8.76249 12.8119 8.98668C12.8987 9.13705 13.0563 9.22114 13.2183 9.22114C13.2978 9.22114 13.3784 9.20089 13.4522 9.15824L14.7567 8.40508C14.9808 8.27561 15.0577 7.98896 14.9282 7.76477Z" fill="#FFA03F"/>
<path d="M12.0002 4.83732C11.776 4.70782 11.4893 4.78469 11.3599 5.00888L10.6068 6.31335C10.4774 6.53757 10.5542 6.82426 10.7784 6.95366C10.8522 6.99629 10.9328 7.01657 11.0123 7.01657C11.1743 7.01657 11.3319 6.93248 11.4187 6.7821L12.1718 5.47763C12.3013 5.25341 12.2244 4.96673 12.0002 4.83732Z" fill="#FFA03F"/>
<path d="M8 3.76465C7.74112 3.76465 7.53125 3.97452 7.53125 4.2334V5.73964C7.53125 5.99852 7.74112 6.20839 8 6.20839C8.25888 6.20839 8.46875 5.99852 8.46875 5.73964V4.2334C8.46875 3.97452 8.25888 3.76465 8 3.76465Z" fill="#FFA03F"/>
<path d="M5.39352 6.31358L4.64039 5.00915C4.51095 4.78493 4.22427 4.70805 4.00008 4.83758C3.77589 4.96702 3.69905 5.25371 3.82852 5.4779L4.58164 6.78233C4.66845 6.93274 4.82602 7.0168 4.98802 7.0168C5.06755 7.0168 5.14817 6.99655 5.22195 6.9539C5.44614 6.82446 5.52299 6.5378 5.39352 6.31358Z" fill="#FFA03F"/>
<path d="M3.01642 8.34805L1.71199 7.59489C1.48777 7.46539 1.20108 7.54224 1.07167 7.76646C0.942236 7.99064 1.01902 8.27733 1.24324 8.40677L2.54767 9.15992C2.62149 9.20255 2.70205 9.22283 2.78158 9.22283C2.94361 9.22283 3.10117 9.13877 3.18799 8.98836C3.31742 8.76417 3.24064 8.47749 3.01642 8.34805Z" fill="#FFA03F"/>
<path d="M15.5312 11.2971H11.4496C11.2199 9.59848 9.76059 8.28467 8 8.28467C6.23937 8.28467 4.78006 9.59848 4.55041 11.2971H0.46875C0.209875 11.2971 0 11.507 0 11.7659C0 12.0248 0.209875 12.2346 0.46875 12.2346H15.5312C15.7901 12.2346 16 12.0248 16 11.7659C16 11.507 15.7901 11.2971 15.5312 11.2971Z" fill="#FFA03F"/>
</svg>
