<?xml version="1.0" encoding="UTF-8" standalone="no"?>
<!DOCTYPE svg PUBLIC "-//W3C//DTD SVG 1.1//EN" "http://www.w3.org/Graphics/SVG/1.1/DTD/svg11.dtd">
<svg width="100%" height="100%" viewBox="0 0 512 512" version="1.1" xmlns="http://www.w3.org/2000/svg" xmlns:xlink="http://www.w3.org/1999/xlink" xml:space="preserve" xmlns:serif="http://www.serif.com/" style="fill-rule:evenodd;clip-rule:evenodd;stroke-linejoin:round;stroke-miterlimit:2;">
    <g id="idea.svg" transform="matrix(1,0,0,1,256,256)">
        <g transform="matrix(1,0,0,1,-256,-256)">
            <path d="M301,436L301,467C301,491.898 280.902,512 256,512C231.098,512 211,491.898 211,467L211,436C211,427.598 217.598,420 226,420L286,420C294.402,420 301,427.598 301,436Z" style="fill:rgb(39,153,240);fill-rule:nonzero;"/>
            <path d="M331,375L331,405C331,429.898 310.902,451 286,451L226,451C201.098,451 181,429.898 181,405L181,375C181,366.598 187.598,360 196,360L316,360C324.402,360 331,366.598 331,375Z" style="fill:rgb(184,211,234);fill-rule:nonzero;"/>
            <path d="M46,180L15,180C6.711,180 0,173.289 0,165C0,156.711 6.711,150 15,150L46,150C54.289,150 61,156.711 61,165C61,173.289 54.289,180 46,180Z" style="fill:rgb(255,218,45);fill-rule:nonzero;"/>
            <path d="M35.16,292.5C31.016,285.32 33.477,276.152 40.652,272.008L66.641,257.008C73.773,252.859 82.988,255.32 87.133,262.5C91.277,269.68 88.816,278.848 81.641,282.992L55.652,297.992C48.555,302.094 39.352,299.738 35.16,292.5Z" style="fill:rgb(255,218,45);fill-rule:nonzero;"/>
            <path d="M66.641,72.992L40.652,57.992C33.477,53.848 31.016,44.68 35.16,37.5C39.293,30.32 48.477,27.848 55.652,32.008L81.641,47.008C88.816,51.152 91.277,60.32 87.133,67.5C82.945,74.727 73.746,77.098 66.641,72.992Z" style="fill:rgb(255,218,45);fill-rule:nonzero;"/>
            <path d="M360.098,36.898C330.398,12.598 293.801,0 256,0C244.301,0 232.598,1.199 220.902,3.602C156.699,16.801 105.699,69.301 93.699,134.398C84.102,187.801 100,240.598 137.801,279.301C146.199,288 151,299.398 151,311.102L151,345C151,369.898 171.098,390 196,390L316,390C340.902,390 361,369.898 361,345L361,311.102C361,299.398 365.5,288.301 374.199,279.602C404.199,248.699 421,207.898 421,165C421,115.199 398.801,68.398 360.098,36.898Z" style="fill:rgb(253,245,215);fill-rule:nonzero;"/>
            <g>
                <path d="M326.5,175.5L301,201.301L301,315C301,323.398 294.402,330 286,330C277.598,330 271,323.398 271,315L271,210L241,210L241,315C241,323.398 234.402,330 226,330C217.598,330 211,323.398 211,315L211,201.301L185.5,175.5C179.5,169.801 179.5,160.199 185.5,154.5C191.199,148.5 200.801,148.5 206.5,154.5L232.301,180L279.699,180L305.5,154.5C311.199,148.5 320.801,148.5 326.5,154.5C332.5,160.199 332.5,169.801 326.5,175.5Z" style="fill:rgb(255,196,48);fill-rule:nonzero;"/>
                <path d="M497,180L466,180C457.711,180 451,173.289 451,165C451,156.711 457.711,150 466,150L497,150C505.289,150 512,156.711 512,165C512,173.289 505.289,180 497,180Z" style="fill:rgb(255,195,6);fill-rule:nonzero;"/>
                <path d="M424.867,67.5C420.723,60.32 423.184,51.152 430.359,47.008L456.348,32.008C463.465,27.848 472.68,30.32 476.84,37.5C480.984,44.68 478.523,53.848 471.348,57.992L445.359,72.992C438.262,77.094 429.059,74.738 424.867,67.5Z" style="fill:rgb(255,195,6);fill-rule:nonzero;"/>
                <path d="M456.348,297.992L430.359,282.992C423.184,278.848 420.723,269.68 424.867,262.5C429.027,255.32 438.168,252.859 445.359,257.008L471.348,272.008C478.523,276.152 480.984,285.32 476.84,292.5C472.652,299.727 463.453,302.098 456.348,297.992Z" style="fill:rgb(255,195,6);fill-rule:nonzero;"/>
            </g>
        </g>
    </g>
    <g id="idea--2-.svg" serif:id="idea (2).svg" transform="matrix(1,0,0,1,256,256)">
        <g transform="matrix(1,0,0,1,-256,-256)">
            <clipPath id="_clip1">
                <rect x="0" y="0" width="512" height="512"/>
            </clipPath>
            <g clip-path="url(#_clip1)">
                <path d="M256,512.984C280.813,512.984 301,492.797 301,467.984L301,450.402C318.461,444.211 331,427.539 331,407.984L331,390.32C337.34,387.992 343.156,384.188 348.055,379.059C356.402,370.328 361,358.938 361,346.984L361,311.961C361,300.309 365.641,289.145 374.063,280.52C404.332,249.543 421,208.863 421,165.984C421,62.09 325.953,-17.188 220.813,4.637C156.727,17.934 105.691,70.418 93.82,135.238C84.031,188.695 100.023,241.562 137.703,280.281C146.277,289.094 151,300.352 151,311.988L151,346.984C151,358.938 155.598,370.328 163.945,379.059C168.844,384.187 174.66,387.992 181,390.32L181,407.984C181,427.539 193.539,444.211 211,450.402L211,467.984C211,492.797 231.188,512.984 256,512.984ZM256,482.984C247.73,482.984 241,476.254 241,467.984L241,452.984L271,452.984L271,467.984C271,476.254 264.27,482.984 256,482.984ZM286,422.984L226,422.984C217.73,422.984 211,416.254 211,407.984L211,392.984L301,392.984L301,407.984C301,416.254 294.27,422.984 286,422.984ZM159.203,259.359C128.387,227.691 115.313,184.422 123.332,140.645C133.027,87.707 174.652,44.852 226.906,34.008C313.617,16.016 391,81.309 391,165.984C391,200.984 377.363,234.215 352.605,259.555C338.672,273.816 331,292.426 331,311.961L331,346.984C331,355.504 323.988,362.984 316,362.984L196,362.984C188.012,362.984 181,355.504 181,346.984L181,311.988C181,292.496 173.258,273.805 159.203,259.359Z" style="fill:rgb(255,195,6);fill-rule:nonzero;"/>
                <path d="M61,165.984C61,157.699 54.285,150.984 46,150.984L15,150.984C6.715,150.984 0,157.699 0,165.984C0,174.266 6.715,180.984 15,180.984L46,180.984C54.285,180.984 61,174.266 61,165.984Z" style="fill:rgb(255,195,6);fill-rule:nonzero;"/>
                <path d="M497,150.984L466,150.984C457.715,150.984 451,157.699 451,165.984C451,174.266 457.715,180.984 466,180.984L497,180.984C505.285,180.984 512,174.266 512,165.984C512,157.699 505.285,150.984 497,150.984Z" style="fill:rgb(255,195,6);fill-rule:nonzero;"/>
                <path d="M55.652,298.973L81.633,283.973C88.809,279.832 91.266,270.656 87.125,263.484C82.98,256.309 73.809,253.852 66.633,257.992L40.652,272.992C33.48,277.137 31.02,286.309 35.164,293.484C39.32,300.68 48.5,303.102 55.652,298.973Z" style="fill:rgb(255,195,6);fill-rule:nonzero;"/>
                <path d="M476.836,38.484C472.691,31.309 463.52,28.852 456.348,32.992L430.367,47.992C423.191,52.133 420.734,61.309 424.875,68.484C429.031,75.68 438.211,78.102 445.367,73.973L471.348,58.973C478.52,54.832 480.98,45.656 476.836,38.484Z" style="fill:rgb(255,195,6);fill-rule:nonzero;"/>
                <path d="M81.637,47.992L55.656,32.992C48.48,28.848 39.305,31.309 35.164,38.484C31.023,45.656 33.48,54.832 40.656,58.973L66.637,73.973C73.777,78.098 82.965,75.688 87.125,68.484C91.27,61.309 88.809,52.133 81.637,47.992Z" style="fill:rgb(255,195,6);fill-rule:nonzero;"/>
                <path d="M424.875,263.484C420.73,270.656 423.191,279.832 430.363,283.973L456.344,298.973C463.488,303.098 472.676,300.688 476.836,293.484C480.977,286.309 478.52,277.133 471.344,272.992L445.363,257.992C438.188,253.848 429.02,256.309 424.875,263.484Z" style="fill:rgb(255,195,6);fill-rule:nonzero;"/>
            </g>
        </g>
    </g>
</svg>
