<?xml version="1.0" encoding="UTF-8" standalone="no"?>
<!DOCTYPE svg PUBLIC "-//W3C//DTD SVG 1.1//EN" "http://www.w3.org/Graphics/SVG/1.1/DTD/svg11.dtd">
<svg width="100%" height="100%" viewBox="0 0 512 512" version="1.1" xmlns="http://www.w3.org/2000/svg" xmlns:xlink="http://www.w3.org/1999/xlink" xml:space="preserve" xmlns:serif="http://www.serif.com/" style="fill-rule:evenodd;clip-rule:evenodd;stroke-linejoin:round;stroke-miterlimit:2;">
    <g id="like.svg" transform="matrix(1,0,0,1,256,256)">
        <g transform="matrix(1,0,0,1,-256,-256)">
            <path d="M344.265,255.139L214.283,255.139C207.509,255.139 201.573,250.608 199.787,244.074C198.001,237.54 200.807,230.619 206.638,227.172C263.271,193.708 292.688,154.672 296.568,107.834C297.921,91.579 312.399,78.595 328.834,78.81C345.604,79.078 361.315,85.8 373.082,97.74C384.858,109.691 391.348,125.517 391.354,142.301L391.354,147.356C391.354,188.356 379.21,214.498 356.803,248.396C354.018,252.607 349.311,255.139 344.265,255.139Z" style="fill:rgb(238,246,254);fill-rule:nonzero;"/>
            <path d="M503.562,272.171C503.562,246.207 482.439,225.083 456.474,225.083L214.283,225.083C211.592,225.083 208.95,225.805 206.635,227.175C189.634,237.227 172.468,245.502 158.675,252.153C153.864,254.472 149.32,256.663 145.187,258.729C140.096,261.275 136.88,266.478 136.88,272.171L136.88,464.53C136.88,470.223 140.096,475.426 145.187,477.972C205.91,508.329 256.386,512 315.247,512C324.362,512 333.684,511.912 343.27,511.822C353.872,511.722 364.833,511.618 376.325,511.618L423.834,511.618C449.798,511.618 470.922,490.495 470.922,464.53C470.922,455.8 468.535,447.618 464.377,440.601C477.906,432.319 486.952,417.402 486.952,400.41C486.952,391.68 484.565,383.498 480.407,376.481C493.936,368.199 502.982,353.282 502.982,336.29C502.982,324.078 498.309,312.937 490.658,304.562C498.99,295.781 503.562,284.328 503.562,272.171Z" style="fill:rgb(238,246,254);fill-rule:nonzero;"/>
            <path id="SVGCleanerId_0" d="M102.613,432.66L102.613,511.808L72.557,511.808L72.557,432.66C72.557,424.365 79.29,417.632 87.585,417.632C95.88,417.632 102.613,424.365 102.613,432.66Z" style="fill:rgb(115,195,255);fill-rule:nonzero;"/>
            <g>
                <path id="SVGCleanerId_0_1_" d="M102.613,432.66L102.613,511.808L72.557,511.808L72.557,432.66C72.557,424.365 79.29,417.632 87.585,417.632C95.88,417.632 102.613,424.365 102.613,432.66Z" style="fill:rgb(115,195,255);fill-rule:nonzero;"/>
            </g>
            <path d="M151.705,225.083L23.466,225.083C15.171,225.083 8.438,231.816 8.438,240.111L8.438,496.589C8.438,504.894 15.171,511.617 23.466,511.807L119.645,511.807C138.069,511.617 154.049,500.987 161.774,485.538C164.95,479.216 166.733,472.073 166.733,464.529L166.733,240.111C166.733,231.815 160,225.083 151.705,225.083Z" style="fill:rgb(253,253,253);fill-rule:nonzero;"/>
            <path d="M102.613,431.658L102.613,511.808L72.557,511.808L72.557,431.658C72.557,423.363 79.29,416.63 87.585,416.63C95.88,416.63 102.613,423.363 102.613,431.658Z" style="fill:rgb(115,195,255);fill-rule:nonzero;"/>
        </g>
    </g>
    <g id="like--1-.svg" serif:id="like (1).svg" transform="matrix(1,0,0,1,256,256)">
        <g transform="matrix(1,0,0,1,-256,-256)">
            <g>
                <g>
                    <path d="M503.562,272.168C503.562,246.203 482.438,225.08 456.474,225.08L371.099,225.08C384.321,201.145 391.352,178.555 391.352,147.356L391.352,142.306C391.347,125.524 384.861,109.699 373.085,97.747C361.316,85.802 345.603,79.078 328.84,78.816C328.68,78.814 328.519,78.812 328.359,78.812C312.112,78.812 297.904,91.734 296.57,107.835C290.209,184.616 216.224,224.184 166.735,248.25L166.735,240.305C166.735,232.005 160.006,225.277 151.707,225.277L23.466,225.277C15.166,225.277 8.438,232.006 8.438,240.305L8.438,496.785C8.438,505.084 15.167,511.813 23.466,511.813L119.646,511.813C138.068,511.813 154.042,501.174 161.775,485.722C215.299,508.972 261.799,512 315.199,512C324.32,512 333.651,511.912 343.245,511.821C353.854,511.721 364.824,511.617 376.324,511.617L423.839,511.617C449.804,511.617 470.927,490.493 470.927,464.529C470.927,455.799 468.539,447.617 464.382,440.6C477.911,432.317 486.957,417.401 486.957,400.409C486.957,391.679 484.57,383.497 480.412,376.48C493.941,368.197 502.987,353.281 502.987,336.289C502.987,324.061 498.3,312.91 490.631,304.531C498.635,296.085 503.562,284.694 503.562,272.168ZM136.678,464.724C136.678,474.116 129.038,481.756 119.646,481.756L102.614,481.756L102.614,432.664C102.614,424.364 95.885,417.636 87.586,417.636C79.287,417.636 72.558,424.365 72.558,432.664L72.558,481.756L38.495,481.756L38.495,255.332L136.679,255.332L136.679,464.724L136.678,464.724ZM424.414,319.256L455.899,319.256C465.291,319.256 472.931,326.896 472.931,336.288C472.931,345.68 465.291,353.32 455.899,353.32L424.414,353.32C416.114,353.32 409.386,360.049 409.386,368.348C409.386,376.647 416.115,383.376 424.414,383.376L439.869,383.376C449.261,383.376 456.901,391.016 456.901,400.408C456.901,409.8 449.261,417.44 439.869,417.44L423.839,417.44C415.539,417.44 408.811,424.169 408.811,432.468C408.811,440.767 415.54,447.496 423.839,447.496C433.231,447.496 440.871,455.136 440.871,464.528C440.871,473.92 433.231,481.56 423.839,481.56L376.324,481.56C364.682,481.56 353.64,481.664 342.961,481.766C275.969,482.399 226.751,482.867 166.932,455.092L166.932,281.537L166.931,281.537C168.495,280.781 170.1,280.006 171.737,279.217C197.862,266.621 233.641,249.371 264.405,223.244C302.066,191.258 322.967,153.263 326.524,110.315C326.566,109.805 327.546,108.866 328.353,108.866L328.369,108.866C346.525,109.15 361.296,124.159 361.296,142.323L361.296,147.355C361.296,178.595 353.149,198.361 336.108,225.079L312.204,225.079C303.904,225.079 297.176,231.808 297.176,240.107C297.176,248.407 303.905,255.135 312.204,255.135L456.474,255.135C465.866,255.135 473.506,262.775 473.506,272.167C473.506,281.559 465.866,289.199 456.474,289.199L424.414,289.199C416.114,289.199 409.386,295.928 409.386,304.227C409.386,312.527 416.115,319.256 424.414,319.256Z" style="fill:rgb(39,153,240);fill-rule:nonzero;"/>
                </g>
            </g>
            <g>
                <g>
                    <g>
                        <path d="M472.307,111.062L440.247,111.062C431.947,111.062 425.219,117.791 425.219,126.09C425.219,134.389 431.948,141.118 440.247,141.118L472.307,141.118C480.607,141.118 487.335,134.389 487.335,126.09C487.335,117.791 480.607,111.062 472.307,111.062Z" style="fill:rgb(255,195,6);fill-rule:nonzero;"/>
                    </g>
                </g>
                <g>
                    <g>
                        <path d="M247.887,111.062L215.827,111.062C207.527,111.062 200.799,117.791 200.799,126.09C200.799,134.389 207.528,141.118 215.827,141.118L247.887,141.118C256.186,141.118 262.915,134.389 262.915,126.09C262.915,117.791 256.186,111.062 247.887,111.062Z" style="fill:rgb(255,195,6);fill-rule:nonzero;"/>
                    </g>
                </g>
                <g>
                    <g>
                        <path d="M308.991,35.282L292.961,7.517C288.811,0.329 279.62,-2.134 272.433,2.017C265.245,6.167 262.783,15.358 266.933,22.545L282.963,50.31C285.746,55.132 290.798,57.826 295.991,57.826C298.54,57.826 301.125,57.177 303.491,55.81C310.678,51.661 313.141,42.47 308.991,35.282Z" style="fill:rgb(255,195,6);fill-rule:nonzero;"/>
                    </g>
                </g>
                <g>
                    <g>
                        <path d="M415.701,2.017C408.513,-2.135 399.321,0.33 395.173,7.517L379.143,35.282C374.992,42.469 377.455,51.661 384.643,55.81C387.009,57.177 389.593,57.826 392.143,57.826C397.337,57.826 402.389,55.131 405.171,50.31L421.201,22.545C425.351,15.358 422.889,6.167 415.701,2.017Z" style="fill:rgb(255,195,6);fill-rule:nonzero;"/>
                    </g>
                </g>
            </g>
        </g>
    </g>
</svg>
