<?xml version="1.0" encoding="UTF-8"?>
<svg xmlns="http://www.w3.org/2000/svg" xmlns:xlink="http://www.w3.org/1999/xlink" xmlns:svgjs="http://svgjs.com/svgjs" version="1.1" width="512" height="512" x="0" y="0" viewBox="0 0 512 512" style="enable-background:new 0 0 512 512" xml:space="preserve" class="">
  <g>
    <g xmlns="http://www.w3.org/2000/svg">
      <path d="m376 122h-75v-107c0-8.284-6.716-15-15-15h-60c-8.284 0-15 6.716-15 15v107h-75c-8.284 0-15 6.716-15 15v360c0 8.284 6.716 15 15 15h240c8.284 0 15-6.716 15-15v-360c0-8.284-6.716-15-15-15zm-135-92h30v152h-30zm120 452h-210v-330h60v30h-15c-8.284 0-15 6.716-15 15s6.716 15 15 15h120c8.284 0 15-6.716 15-15s-6.716-15-15-15h-15v-30h60z" fill="#333333" data-original="#000000" style="" class=""/>
      <path d="m211.345 331.509-5.404 31.507c-.965 5.627 1.348 11.315 5.967 14.671s10.744 3.798 15.797 1.142l28.295-14.876 28.295 14.875c5.095 2.678 11.215 2.187 15.797-1.142 4.619-3.356 6.933-9.043 5.967-14.671l-5.404-31.507 22.891-22.313c4.088-3.985 5.56-9.946 3.795-15.376-1.764-5.43-6.458-9.388-12.108-10.209l-31.635-4.597-14.147-28.666c-2.527-5.12-7.742-8.361-13.451-8.361s-10.924 3.242-13.451 8.361l-14.147 28.666-31.635 4.597c-5.65.821-10.344 4.779-12.108 10.209-1.765 5.43-.293 11.391 3.795 15.376zm29.175-23.941c4.885-.71 9.109-3.779 11.294-8.206l4.186-8.482 4.186 8.482c2.185 4.427 6.409 7.496 11.294 8.206l9.361 1.36-6.773 6.603c-3.535 3.446-5.148 8.411-4.314 13.277l1.599 9.323-8.373-4.402c-4.368-2.297-9.591-2.298-13.96 0l-8.373 4.402 1.599-9.323c.834-4.866-.779-9.831-4.314-13.277l-6.773-6.603z" fill="#333333" data-original="#000000" style="" class=""/>
      <path d="m316 422h-120c-8.284 0-15 6.716-15 15s6.716 15 15 15h120c8.284 0 15-6.716 15-15s-6.716-15-15-15z" fill="#333333" data-original="#000000" style="" class=""/>
    </g>
  </g>
</svg>
