<svg id="Capa_1" enable-background="new 0 0 512 512" height="512" viewBox="0 0 512 512" width="512" xmlns="http://www.w3.org/2000/svg"><g><g id="ID_card_1_"><g><path d="m316 211h-120c-8.291 0-15-6.709-15-15s6.709-15 15-15h120c8.291 0 15 6.709 15 15s-6.709 15-15 15z"/></g><g><path d="m242.245 357.807-1.597 9.316 8.364-4.395c4.373-2.303 9.592-2.308 13.975 0l8.364 4.395-1.597-9.316c-.835-4.863.776-9.829 4.307-13.271l6.768-6.606-9.346-1.362c-4.893-.703-9.111-3.779-11.294-8.203l-4.189-8.483-4.189 8.481c-2.183 4.424-6.401 7.5-11.294 8.203l-9.346 1.362 6.768 6.606c3.53 3.444 5.141 8.409 4.306 13.273z"/><path d="m376 121h-45v32.763c17.422 6.213 30 22.707 30 42.237 0 24.814-20.186 45-45 45-5.958 0-123.166 0-120 0-24.814 0-45-20.186-45-45 0-19.53 12.578-36.024 30-42.237v-32.763h-45c-8.291 0-15 6.709-15 15v361c0 8.291 6.709 15 15 15h240c8.291 0 15-6.709 15-15v-361c0-8.291-6.709-15-15-15zm-191.338 201.826c1.772-5.435 6.46-9.39 12.114-10.21l31.626-4.6 14.15-28.667c5.039-10.254 21.855-10.254 26.895 0l14.15 28.667 31.626 4.6c5.654.82 10.342 4.775 12.114 10.21 1.758 5.42.293 11.382-3.794 15.366l-22.896 22.31 5.405 31.509c.967 5.625-1.348 11.309-5.962 14.663-4.523 3.303-10.658 3.853-15.806 1.143l-28.284-14.869-28.286 14.868c-5.039 2.666-11.191 2.227-15.806-1.143-4.614-3.354-6.929-9.038-5.962-14.663l5.405-31.509-22.896-22.31c-4.086-3.983-5.551-9.945-3.793-15.365zm131.338 159.174h-120c-8.291 0-15-6.709-15-15s6.709-15 15-15h120c8.291 0 15 6.709 15 15s-6.709 15-15 15z"/></g></g><path d="m301 151v-136c0-8.291-6.709-15-15-15h-60c-8.291 0-15 6.709-15 15v136z"/></g></svg>