<svg height="512pt" viewBox="0 0 512 512" width="512pt" xmlns="http://www.w3.org/2000/svg"><path d="m317 121h180c8.289062 0 15-6.710938 15-15v-60c0-8.289062-6.710938-15-15-15h-180c-8.289062 0-15 6.710938-15 15v15h-45c-8.289062 0-15 6.710938-15 15v165h-62v-31c0-49.628906-40.371094-90-90-90s-90 40.371094-90 90v136c0 8.289062 6.710938 15 15 15h30v136c0 8.289062 6.710938 15 15 15h60c8.289062 0 15-6.710938 15-15v-136h30c8.289062 0 15-6.710938 15-15v-75h62v165c0 8.289062 6.710938 15 15 15h45v15c0 8.289062 6.710938 15 15 15h180c8.289062 0 15-6.710938 15-15v-60c0-8.289062-6.710938-15-15-15h-180c-8.289062 0-15 6.710938-15 15v15h-30v-90h30v15c0 8.289062 6.710938 15 15 15h180c8.289062 0 15-6.710938 15-15v-60c0-8.289062-6.710938-15-15-15h-180c-8.289062 0-15 6.710938-15 15v15h-30v-90h30v15c0 8.289062 6.710938 15 15 15h180c8.289062 0 15-6.710938 15-15v-60c0-8.289062-6.710938-15-15-15h-180c-8.289062 0-15 6.710938-15 15v15h-30v-90h30v15c0 8.289062 6.710938 15 15 15zm0 0"/><path d="m150 60c0-33.089844-26.910156-60-60-60s-60 26.910156-60 60 26.910156 60 60 60 60-26.910156 60-60zm0 0"/></svg>