<svg width="16" height="16" viewBox="0 0 16 16" fill="none" xmlns="http://www.w3.org/2000/svg">
<g clip-path="url(#clip0_753_22657)">
<path d="M10.4619 0.159549C10.2861 0.323001 10.2257 0.574466 10.3081 0.800052C10.6009 1.60157 10.7495 2.44849 10.7495 3.31739C10.7495 5.29468 9.97948 7.15381 8.58141 8.55237C7.18309 9.95118 5.32346 10.7214 3.34543 10.7214C2.47861 10.7214 1.63278 10.573 0.831389 10.28C0.605925 10.1976 0.354582 10.2579 0.191007 10.4338C0.0274325 10.6097 -0.0146818 10.865 0.0839512 11.0841C0.724334 12.5081 1.75083 13.7217 3.05222 14.5936C4.38596 15.4872 5.94224 15.973 7.55308 15.9988C8.69884 16.0171 9.81395 15.8045 10.8674 15.3668C11.8824 14.9452 12.7941 14.335 13.5769 13.5532C14.3596 12.7715 14.9709 11.8608 15.394 10.8464C15.817 9.83192 16.0313 8.75989 16.0311 7.65809C16.0311 7.61658 16.0309 7.57483 16.0303 7.53321C16.0067 5.92054 15.5211 4.36158 14.6262 3.02515C13.7534 1.7218 12.5382 0.693851 11.1122 0.052615C10.8931 -0.0460179 10.6378 -0.00402567 10.4619 0.159549Z" fill="#2799F0"/>
</g>
<defs>
<clipPath id="clip0_753_22657">
<rect width="16" height="16" fill="white"/>
</clipPath>
</defs>
</svg>
