<svg id="Capa_1" enable-background="new 0 0 512 512" height="512" viewBox="0 0 512 512" width="512" xmlns="http://www.w3.org/2000/svg"><g><path d="m76 452h360c8.291 0 15-6.709 15-15 0-57.759-17.681-79.863-33.281-99.375-14.341-17.915-26.719-35.384-26.719-82.625v-60c0-60.69-40.512-111.548-95.722-128.489 3.532-6.421 5.722-13.68 5.722-21.511 0-24.814-20.186-45-45-45s-45 20.186-45 45c0 7.831 2.19 15.09 5.722 21.511-55.21 16.941-95.722 67.799-95.722 128.489v60c0 47.241-12.378 64.71-26.719 82.625-15.6 19.512-33.281 41.616-33.281 99.375 0 8.291 6.709 15 15 15zm165-407c0-8.276 6.724-15 15-15s15 6.724 15 15-6.724 15-15 15-15-6.724-15-15z"/><path d="m91 195c0-58.608 31.626-113.35 82.529-142.866 7.163-4.16 9.609-13.33 5.449-20.508-4.131-7.148-13.286-9.58-20.508-5.449-60.116 34.863-97.47 99.551-97.47 168.823 0 8.291 6.709 15 15 15s15-6.709 15-15z"/><path d="m421 195c0 8.291 6.709 15 15 15s15-6.709 15-15c0-69.272-37.354-133.96-97.471-168.823-7.222-4.175-16.348-1.714-20.508 5.449-4.16 7.178-1.714 16.348 5.449 20.508 50.904 29.516 82.53 84.258 82.53 142.866z"/><path d="m256 512c22.152 0 41.285-12.142 51.678-30h-103.356c10.393 17.858 29.526 30 51.678 30z"/></g></svg>