<?xml version="1.0" encoding="UTF-8"?>
<svg xmlns="http://www.w3.org/2000/svg" xmlns:xlink="http://www.w3.org/1999/xlink" xmlns:svgjs="http://svgjs.com/svgjs" version="1.1" width="512" height="512" x="0" y="0" viewBox="0 0 512.01 512.01" style="enable-background:new 0 0 512 512" xml:space="preserve" class="">
  <g>
    <path xmlns="http://www.w3.org/2000/svg" d="m406.005 61.01h-45v-15c0-8.284-6.716-15-15-15h-47.502c-2.166-6.295-5.698-12.116-10.442-17.079-17.756-18.574-46.352-18.577-64.111 0-4.744 4.962-8.276 10.783-10.442 17.079h-47.502c-8.284 0-15 6.716-15 15v15h-45c-24.813 0-45 20.187-45 45v361c0 24.813 20.187 45 45 45h300c24.813 0 45-20.187 45-45v-361c-.001-24.813-20.188-45-45.001-45zm-225 0h45c8.284 0 15-6.716 15-15 0-8.523 7.01-16 15-16s15 7.477 15 16c0 8.284 6.716 15 15 15h45v30h-150zm240 406c0 8.271-6.729 15-15 15h-300c-8.271 0-15-6.729-15-15v-361c0-8.271 6.729-15 15-15h45v15c0 8.284 6.716 15 15 15h180c8.284 0 15-6.716 15-15v-15h45c8.271 0 15 6.729 15 15z" fill="#333333" data-original="#000000" style="" class=""/>
    <path xmlns="http://www.w3.org/2000/svg" d="m196.005 331.01h120c8.284 0 15-6.716 15-15v-40c0-25.325-14.567-47.298-35.754-58.021 16.802-29.885-4.944-66.979-39.246-66.979-34.288 0-56.057 37.078-39.246 66.979-21.187 10.723-35.754 32.696-35.754 58.021v40c0 8.284 6.716 15 15 15zm60-150c8.271 0 15 6.729 15 15s-6.729 15-15 15-15-6.729-15-15 6.729-15 15-15zm-45 95c0-19.299 15.701-35 35-35h20c19.299 0 35 15.701 35 35v25h-90z" fill="#333333" data-original="#000000" style="" class=""/>
    <path xmlns="http://www.w3.org/2000/svg" d="m346.005 361.01h-180c-8.284 0-15 6.716-15 15s6.716 15 15 15h180c8.284 0 15-6.716 15-15s-6.716-15-15-15z" fill="#333333" data-original="#000000" style="" class=""/>
    <path xmlns="http://www.w3.org/2000/svg" d="m346.005 421.01h-180c-8.284 0-15 6.716-15 15s6.716 15 15 15h180c8.284 0 15-6.716 15-15s-6.716-15-15-15z" fill="#333333" data-original="#000000" style="" class=""/>
  </g>
</svg>
