<svg id="Capa_1" enable-background="new 0 0 512 512" height="512" viewBox="0 0 512 512" width="512" xmlns="http://www.w3.org/2000/svg"><path d="m166 121h180c8.284 0 15-6.716 15-15v-60c0-8.284-6.716-15-15-15h-47.502c-2.166-6.295-5.698-12.116-10.442-17.079-8.582-8.977-19.967-13.921-32.056-13.921s-23.474 4.944-32.056 13.921c-4.744 4.963-8.276 10.784-10.442 17.079h-47.502c-8.284 0-15 6.716-15 15v60c0 8.284 6.716 15 15 15z"/><circle cx="256" cy="196" r="15"/><path d="m246 241c-19.299 0-35 15.701-35 35v25h90v-25c0-19.299-15.701-35-35-35z"/><path d="m406 61h-15v45c0 24.813-20.187 45-45 45h-90c24.813 0 45 20.187 45 45 0 7.979-2.097 15.474-5.754 21.979 21.187 10.723 35.754 32.696 35.754 58.021v40c0 8.284-6.716 15-15 15h-120c-8.284 0-15-6.716-15-15v-40c0-25.325 14.567-47.298 35.754-58.021-3.657-6.505-5.754-14-5.754-21.979 0-24.813 20.187-45 45-45h-90c-24.813 0-45-20.187-45-45v-45h-15c-24.813 0-45 20.187-45 45v361c0 24.813 20.187 45 45 45h300c24.813 0 45-20.187 45-45v-361c0-24.813-20.187-45-45-45zm-60 390h-180c-8.284 0-15-6.716-15-15s6.716-15 15-15h180c8.284 0 15 6.716 15 15s-6.716 15-15 15zm0-60h-180c-8.284 0-15-6.716-15-15s6.716-15 15-15h180c8.284 0 15 6.716 15 15s-6.716 15-15 15z"/></svg>