<?xml version="1.0" encoding="iso-8859-1"?>
<!-- Generator: Adobe Illustrator 21.0.0, SVG Export Plug-In . SVG Version: 6.00 Build 0)  -->
<svg xmlns="http://www.w3.org/2000/svg" xmlns:xlink="http://www.w3.org/1999/xlink" version="1.1" id="Capa_1" x="0px" y="0px" viewBox="0 0 512 512" style="enable-background:new 0 0 512 512;" xml:space="preserve" width="512" height="512">
<path d="M472.9,192.8h-18.904c-3.531-11.05-7.985-21.783-13.322-32.096c3.89-3.889,8.728-8.724,13.396-13.389  c15.23-15.243,15.23-40.046-0.005-55.294l-34.091-34.09c-15.243-15.23-40.045-15.229-55.298,0.009  c-4.659,4.663-9.492,9.498-13.38,13.386c-10.312-5.336-21.046-9.792-32.096-13.322V39.1C319.2,17.54,301.66,0,280.1,0H231.9  C210.34,0,192.8,17.54,192.8,39.1v18.904c-11.05,3.53-21.784,7.986-32.096,13.322c-3.89-3.89-8.725-8.728-13.39-13.396  c-15.241-15.228-40.044-15.23-55.293,0.005l-34.091,34.09c-15.23,15.243-15.23,40.046,0.009,55.298  c4.664,4.66,9.498,9.492,13.387,13.38c-5.337,10.313-9.791,21.046-13.322,32.096H39.1C17.54,192.8,0,210.34,0,231.9v48.2  c0,21.56,17.54,39.1,39.1,39.1h18.904c3.531,11.05,7.985,21.783,13.322,32.096c-3.89,3.889-8.728,8.724-13.396,13.389  c-15.23,15.243-15.23,40.046,0.005,55.294l34.091,34.09c15.242,15.23,40.044,15.229,55.298-0.009  c4.659-4.663,9.492-9.498,13.38-13.386c10.312,5.336,21.046,9.792,32.096,13.322V472.9c0,21.56,17.54,39.1,39.101,39.1H280.1  c21.561,0,39.101-17.54,39.101-39.1v-18.904c11.05-3.53,21.784-7.986,32.096-13.322c3.89,3.89,8.725,8.728,13.39,13.396  c15.242,15.229,40.045,15.231,55.293-0.005l34.091-34.09c15.23-15.243,15.23-40.046-0.009-55.298  c-4.664-4.66-9.498-9.492-13.387-13.38c5.337-10.313,9.791-21.046,13.322-32.096H472.9c21.56,0,39.1-17.54,39.1-39.1v-48.2  C512,210.34,494.46,192.8,472.9,192.8z M256,353.467c-53.743,0-97.467-43.724-97.467-97.467s43.724-97.467,97.467-97.467  s97.467,43.724,97.467,97.467S309.743,353.467,256,353.467z"/>















</svg>
