<?xml version="1.0" encoding="iso-8859-1"?>
<!-- Generator: Adobe Illustrator 19.0.0, SVG Export Plug-In . SVG Version: 6.00 Build 0)  -->
<svg version="1.1" id="Capa_1" xmlns="http://www.w3.org/2000/svg" xmlns:xlink="http://www.w3.org/1999/xlink" x="0" y="0"
	 viewBox="0 0 512 512" style="enable-background:new 0 0 512 512;" xml:space="preserve">
<g>
	<g>
		<path d="M406,332c-28.502,0-53.949,13.321-70.451,34.062l-144.584-80.379C194.222,276.384,196,266.396,196,256
			s-1.778-20.384-5.036-29.682l144.584-80.379C352.051,166.679,377.498,180,406,180c49.626,0,90-40.374,90-90
			c0-49.626-40.374-90-90-90c-49.626,0-90,40.374-90,90c0,10.396,1.778,20.384,5.036,29.682l-144.584,80.379
			C159.949,179.321,134.503,166,106,166c-49.626,0-90,40.374-90,90c0,49.626,40.374,90,90,90c28.503,0,53.949-13.321,70.451-34.062
			l144.584,80.379C317.778,401.616,316,411.604,316,422c0,49.626,40.374,90,90,90c49.626,0,90-40.374,90-90
			C496,372.374,455.626,332,406,332z M406,30c33.084,0,60,26.916,60,60s-26.916,60-60,60s-60-26.916-60-60S372.916,30,406,30z
			 M106,316c-33.084,0-60-26.916-60-60s26.916-60,60-60s60,26.916,60,60S139.084,316,106,316z M406,482c-33.084,0-60-26.916-60-60
			s26.916-60,60-60s60,26.916,60,60S439.084,482,406,482z"/>
	</g>
</g>
<g>
</g>
<g>
</g>
<g>
</g>
<g>
</g>
<g>
</g>
<g>
</g>
<g>
</g>
<g>
</g>
<g>
</g>
<g>
</g>
<g>
</g>
<g>
</g>
<g>
</g>
<g>
</g>
<g>
</g>
</svg>
