<?xml version="1.0" encoding="iso-8859-1"?>
<!-- Generator: Adobe Illustrator 19.0.0, SVG Export Plug-In . SVG Version: 6.00 Build 0)  -->
<svg version="1.1" id="Capa_1" xmlns="http://www.w3.org/2000/svg" xmlns:xlink="http://www.w3.org/1999/xlink" x="0" y="0"
	 viewBox="0 0 512 512" style="enable-background:new 0 0 512 512;" xml:space="preserve">
<g>
	<g>
		<path d="M406,332c-28.5,0-53.644,13.57-70.146,34.307l-145.21-80.861C193.883,276.171,196,266.366,196,256
			c0-10.366-2.115-20.171-5.354-29.445l145.208-80.861C352.356,166.43,377.5,180,406,180c49.629,0,90-40.371,90-90
			c0-49.629-40.371-90-90-90c-49.629,0-90,40.371-90,90c0,10.366,2.117,20.171,5.356,29.445l-145.21,80.861
			C159.644,179.57,134.5,166,106,166c-49.629,0-90,40.371-90,90c0,49.629,40.371,90,90,90c28.5,0,53.644-13.57,70.146-34.307
			l145.21,80.861C318.117,401.829,316,411.634,316,422c0,49.629,40.371,90,90,90c49.629,0,90-40.371,90-90
			C496,372.371,455.629,332,406,332z"/>
	</g>
</g>
<g>
</g>
<g>
</g>
<g>
</g>
<g>
</g>
<g>
</g>
<g>
</g>
<g>
</g>
<g>
</g>
<g>
</g>
<g>
</g>
<g>
</g>
<g>
</g>
<g>
</g>
<g>
</g>
<g>
</g>
</svg>
