<svg id="Capa_1" enable-background="new 0 0 512 512" height="512" viewBox="0 0 512 512" width="512" xmlns="http://www.w3.org/2000/svg"><g><g><path d="m326.714 85h-141.428c-6.067 0-11.537-3.655-13.858-9.26s-1.038-12.057 3.252-16.347l1.348-1.348c11.498-11.498 17.83-26.785 17.83-43.045 0-8.284 6.716-15 15-15h94.286c8.284 0 15 6.716 15 15 0 16.26 6.332 31.547 17.83 43.045l1.348 1.348c4.29 4.29 5.573 10.742 3.252 16.347-2.323 5.605-7.793 9.26-13.86 9.26z"/></g><g><path d="m301 408.234v28.739l6.68-4.453c5.038-3.358 11.603-3.358 16.641 0l6.68 4.453v-28.739c-4.819 1.143-9.837 1.766-15 1.766s-10.182-.623-15.001-1.766z"/><circle cx="316" cy="345" r="35"/><path d="m396 40h-35.754c11.524 12.86 14.711 31.118 8.044 47.219-6.991 16.877-23.31 27.781-41.576 27.781h-141.428c-18.266 0-34.584-10.904-41.575-27.779-6.669-16.103-3.482-34.362 8.043-47.221h-35.754c-24.813 0-45 20.187-45 45v382c0 24.813 20.187 45 45 45h280c24.813 0 45-20.187 45-45v-382c0-24.813-20.187-45-45-45zm-250 120h140c8.284 0 15 6.716 15 15s-6.716 15-15 15h-140c-8.284 0-15-6.716-15-15s6.716-15 15-15zm0 180h60c8.284 0 15 6.716 15 15s-6.716 15-15 15h-60c-8.284 0-15-6.716-15-15s6.716-15 15-15zm-15-45c0-8.284 6.716-15 15-15h60c8.284 0 15 6.716 15 15s-6.716 15-15 15h-60c-8.284 0-15-6.716-15-15zm95 135h-80c-8.284 0-15-6.716-15-15s6.716-15 15-15h80c8.284 0 15 6.716 15 15s-6.716 15-15 15zm135-38.163v73.163c0 5.532-3.045 10.615-7.922 13.225-2.217 1.187-4.65 1.775-7.077 1.775-2.911 0-5.812-.846-8.321-2.519l-21.68-14.453-21.68 14.453c-4.603 3.068-10.521 3.354-15.398.744s-7.922-7.693-7.922-13.225v-73.163c-12.313-11.835-20-28.45-20-46.837 0-35.841 29.159-65 65-65s65 29.159 65 65c0 18.387-7.687 35.002-20 46.837zm5-141.837h-220c-8.284 0-15-6.716-15-15s6.716-15 15-15h220c8.284 0 15 6.716 15 15s-6.716 15-15 15z"/></g></g></svg>