<svg id="Capa_1" enable-background="new 0 0 512 512" height="512" viewBox="0 0 512 512" width="512" xmlns="http://www.w3.org/2000/svg"><g><path d="m316 250c-35.841 0-65 29.159-65 65 0 18.387 7.687 35.002 20 46.837v73.163c0 5.532 3.045 10.615 7.922 13.225 4.877 2.611 10.795 2.324 15.398-.744l21.68-14.453 21.68 14.453c2.51 1.673 5.411 2.519 8.321 2.519 2.426 0 4.859-.588 7.077-1.775 4.877-2.61 7.922-7.693 7.922-13.225v-73.163c12.313-11.835 20-28.45 20-46.837 0-35.841-29.159-65-65-65zm0 30c19.299 0 35 15.701 35 35s-15.701 35-35 35-35-15.701-35-35 15.701-35 35-35zm15 126.972-6.68-4.453c-5.038-3.358-11.603-3.358-16.641 0l-6.68 4.453v-28.739c4.819 1.143 9.837 1.766 15 1.766s10.181-.623 15-1.766v28.739z"/><path d="m146 160h140c8.284 0 15-6.716 15-15s-6.716-15-15-15h-140c-8.284 0-15 6.716-15 15s6.716 15 15 15z"/><path d="m366 190h-220c-8.284 0-15 6.716-15 15s6.716 15 15 15h220c8.284 0 15-6.716 15-15s-6.716-15-15-15z"/><path d="m146 280h60c8.284 0 15-6.716 15-15s-6.716-15-15-15h-60c-8.284 0-15 6.716-15 15s6.716 15 15 15z"/><path d="m146 340h60c8.284 0 15-6.716 15-15s-6.716-15-15-15h-60c-8.284 0-15 6.716-15 15s6.716 15 15 15z"/><path d="m226 370h-80c-8.284 0-15 6.716-15 15s6.716 15 15 15h80c8.284 0 15-6.716 15-15s-6.716-15-15-15z"/><path d="m396 40h-61.094c-2.558-7.976-3.906-16.382-3.906-25 0-8.284-6.716-15-15-15h-120c-8.284 0-15 6.716-15 15 0 8.618-1.348 17.024-3.906 25h-61.094c-24.813 0-45 20.187-45 45v382c0 24.813 20.187 45 45 45h280c24.813 0 45-20.187 45-45v-382c0-24.813-20.187-45-45-45zm-185.993-10h91.986c1.892 14.165 6.458 27.699 13.449 40h-118.884c6.991-12.301 11.557-25.835 13.449-40zm200.993 437c0 8.271-6.729 15-15 15h-280c-8.271 0-15-6.729-15-15v-382c0-8.271 6.729-15 15-15h43.66c-.83.907-1.676 1.803-2.55 2.678l-1.716 1.716c-4.29 4.29-5.573 10.742-3.252 16.347 2.322 5.605 7.792 9.26 13.858 9.26h180c6.067 0 11.537-3.655 13.858-9.26s1.038-12.057-3.252-16.347l-1.716-1.716c-.875-.875-1.721-1.771-2.55-2.678h43.66c8.271 0 15 6.729 15 15z"/></g></svg>