<svg width="16" height="16" viewBox="0 0 16 16" fill="none" xmlns="http://www.w3.org/2000/svg">
<path d="M8 12.2188C5.67371 12.2188 3.78125 10.3263 3.78125 8C3.78125 5.67371 5.67371 3.78125 8 3.78125C10.3263 3.78125 12.2188 5.67371 12.2188 8C12.2188 10.3263 10.3263 12.2188 8 12.2188Z" fill="#FFC306"/>
<path d="M8 2.84375C7.74097 2.84375 7.53125 2.63403 7.53125 2.375V0.46875C7.53125 0.209717 7.74097 0 8 0C8.25903 0 8.46875 0.209717 8.46875 0.46875V2.375C8.46875 2.63403 8.25903 2.84375 8 2.84375Z" fill="#FFC306"/>
<path d="M8 16C7.74097 16 7.53125 15.7903 7.53125 15.5312V13.625C7.53125 13.366 7.74097 13.1562 8 13.1562C8.25903 13.1562 8.46875 13.366 8.46875 13.625V15.5312C8.46875 15.7903 8.25903 16 8 16Z" fill="#FFC306"/>
<path d="M4.78149 3.36279L3.84399 1.73913C3.71436 1.51489 3.79126 1.22827 4.01562 1.09875C4.23852 0.968748 4.52649 1.04565 4.656 1.27038L5.5935 2.89404C5.72314 3.11841 5.64623 3.40503 5.42187 3.53454C5.19836 3.66357 4.91113 3.5874 4.78149 3.36279Z" fill="#FFC306"/>
<path d="M11.344 14.7297L10.4065 13.1061C10.2769 12.8817 10.3538 12.5951 10.5781 12.4656C10.8005 12.3356 11.0885 12.4125 11.2185 12.6373L12.156 14.261C12.2856 14.4852 12.2087 14.7718 11.9844 14.9014C11.7609 15.0305 11.4736 14.9542 11.344 14.7297Z" fill="#FFC306"/>
<path d="M2.89408 5.59297L1.27043 4.65547C1.04618 4.52596 0.969279 4.23946 1.0988 4.01509C1.22831 3.78987 1.51493 3.71297 1.73918 3.84346L3.36283 4.78096C3.5872 4.91048 3.6641 5.19697 3.53459 5.42134C3.4047 5.64619 3.11723 5.72188 2.89408 5.59297Z" fill="#FFC306"/>
<path d="M14.2606 12.156L12.637 11.2185C12.4126 11.0889 12.3357 10.8024 12.4652 10.5781C12.5949 10.3528 12.8814 10.2768 13.1057 10.4064L14.7294 11.3439C14.9536 11.4735 15.0305 11.76 14.901 11.9843C14.7711 12.2092 14.4837 12.2849 14.2606 12.156Z" fill="#FFC306"/>
<path d="M1.0988 11.9843C0.969279 11.76 1.04618 11.4735 1.27043 11.3439L2.89408 10.4064C3.11796 10.2768 3.40458 10.3528 3.53459 10.5781C3.6641 10.8024 3.5872 11.0889 3.36283 11.2184L1.73918 12.1559C1.51567 12.2851 1.22843 12.2088 1.0988 11.9843Z" fill="#FFC306"/>
<path d="M12.4652 5.42135C12.3357 5.19698 12.4126 4.91048 12.637 4.78097L14.2606 3.84346C14.4831 3.71297 14.771 3.78987 14.901 4.01509C15.0305 4.23946 14.9536 4.52596 14.7294 4.65548L13.1057 5.59298C12.8821 5.72213 12.5949 5.64584 12.4652 5.42135Z" fill="#FFC306"/>
<path d="M4.01562 14.9014C3.79126 14.7719 3.71436 14.4852 3.84399 14.261L4.78149 12.6373C4.91149 12.4125 5.19714 12.3356 5.42187 12.4656C5.64623 12.5952 5.72314 12.8817 5.5935 13.1061L4.656 14.7297C4.52612 14.9546 4.23877 15.0303 4.01562 14.9014Z" fill="#FFC306"/>
<path d="M10.5781 3.53454C10.3538 3.40491 10.2769 3.11841 10.4065 2.89404L11.344 1.27038C11.4735 1.04565 11.7605 0.968748 11.9844 1.09875C12.2087 1.22827 12.2856 1.51489 12.156 1.73913L11.2185 3.36279C11.0886 3.58777 10.8013 3.66333 10.5781 3.53454Z" fill="#FFC306"/>
<path d="M2.375 8.46875H0.46875C0.209717 8.46875 0 8.25903 0 8C0 7.74097 0.209717 7.53125 0.46875 7.53125H2.375C2.63403 7.53125 2.84375 7.74097 2.84375 8C2.84375 8.25903 2.63403 8.46875 2.375 8.46875Z" fill="#FFC306"/>
<path d="M15.5312 8.46875H13.625C13.366 8.46875 13.1562 8.25903 13.1562 8C13.1562 7.74097 13.366 7.53125 13.625 7.53125H15.5312C15.7903 7.53125 16 7.74097 16 8C16 8.25903 15.7903 8.46875 15.5312 8.46875Z" fill="#FFC306"/>
</svg>
