<?xml version="1.0" encoding="UTF-8" standalone="no"?>
<!DOCTYPE svg PUBLIC "-//W3C//DTD SVG 1.1//EN" "http://www.w3.org/Graphics/SVG/1.1/DTD/svg11.dtd">
<svg width="100%" height="100%" viewBox="0 0 512 512" version="1.1" xmlns="http://www.w3.org/2000/svg" xmlns:xlink="http://www.w3.org/1999/xlink" xml:space="preserve" xmlns:serif="http://www.serif.com/" style="fill-rule:evenodd;clip-rule:evenodd;stroke-linejoin:round;stroke-miterlimit:2;">
    <g id="care--2-.svg" serif:id="care (2).svg" transform="matrix(1,0,0,1,256,256)">
        <g transform="matrix(1,0,0,1,-256,-256)">
            <clipPath id="_clip1">
                <rect x="0" y="0" width="512" height="512"/>
            </clipPath>
            <g clip-path="url(#_clip1)">
                <path d="M510.661,222.215C510.651,222.205 510.651,222.185 510.651,222.175C502.337,192.631 465.556,182.653 443.461,203.787L316.141,325.526C305.02,336.869 290.05,343.665 279.861,344.924C277.423,345.412 274.122,345.748 271.631,345.904C268.759,346.061 274.165,346.014 195.271,346.014C186.991,346.014 180.271,339.295 180.271,331.015C180.271,322.736 186.991,316.016 195.271,316.016L286.771,316.016C307.451,316.016 318.271,299.197 318.271,278.519C318.271,257.841 291.451,241.022 270.771,241.022L151.631,241.022C148.631,241.022 145.701,241.922 143.221,243.602L86.111,282.289C172.613,450.937 155.98,418.505 174.211,454.064L201.191,436.006L300.221,436.006C324.301,436.006 347.581,425.957 364.091,408.428C507.626,256.012 500.463,264.58 505.001,256.171C505.011,256.161 505.011,256.151 505.021,256.141C505.021,256.131 505.031,256.131 505.031,256.121C514.316,238.856 510.661,223.226 510.661,222.215Z" style="fill:rgb(238,246,254);fill-rule:nonzero;"/>
                <path d="M183.979,462.159L83.979,267.176C80.246,259.896 71.364,256.95 64.022,260.556L9.022,287.554C1.48,291.256 -1.544,300.432 2.298,307.888L103.298,503.871C107.107,511.26 116.188,514.125 123.537,510.316L177.537,482.318C184.867,478.517 187.747,469.506 183.979,462.159Z" style="fill:rgb(253,253,253);fill-rule:nonzero;"/>
                <path d="M271.631,19.954C227.777,-24.447 151.631,10.23 151.631,75.021C151.631,105.746 171.068,137.893 209.4,170.567C236.491,193.659 263.252,208.534 264.378,209.155C268.893,211.648 274.37,211.648 278.884,209.155C280.01,208.533 306.771,193.659 333.862,170.567C372.195,137.893 391.631,105.746 391.631,75.021C391.631,10.311 315.521,-24.483 271.631,19.954Z" style="fill:rgb(255,174,187);fill-rule:nonzero;"/>
            </g>
        </g>
    </g>
    <g id="care.svg" transform="matrix(1,0,0,1,256,256)">
        <g transform="matrix(1,0,0,1,-256,-256)">
            <clipPath id="_clip2">
                <rect x="0" y="0" width="512" height="512"/>
            </clipPath>
            <g clip-path="url(#_clip2)">
                <path d="M490.108,188.403C469.257,172.766 440.42,174.456 421.542,192.424L332.614,277.051C325.689,256.149 305.971,241.023 282.775,241.023L151.634,241.023C148.635,241.023 145.704,241.922 143.221,243.604L90.282,279.463L83.981,267.176C80.248,259.896 71.366,256.95 64.024,260.556L9.024,287.554C1.482,291.256 -1.542,300.432 2.3,307.888L103.3,503.871C107.109,511.26 116.19,514.125 123.539,510.316L177.539,482.318C184.87,478.517 187.749,469.506 183.981,462.159L178.394,451.265L201.191,436.006L300.222,436.006C324.302,436.006 347.581,425.953 364.09,408.424L496.915,267.395C518.651,244.316 515.461,207.416 490.108,188.403ZM123.079,476.764L35.974,307.742L64.013,293.979L150.473,462.562L123.079,476.764ZM475.075,246.829L342.249,387.859C331.386,399.394 316.067,406.009 300.221,406.009L196.634,406.009C193.663,406.009 190.759,406.891 188.29,408.543L164.611,424.392L104.073,306.353L156.236,271.02L282.774,271.02C295.18,271.02 305.274,281.112 305.274,293.518C305.274,305.924 295.181,316.016 282.774,316.016L195.274,316.016C186.99,316.016 180.274,322.731 180.274,331.015C180.274,339.298 186.99,346.014 195.274,346.014L282.774,346.014C297.545,346.014 310.901,339.874 320.449,330.023C320.503,329.973 320.561,329.932 320.614,329.881L442.222,214.153C450.451,206.323 463.019,205.585 472.106,212.401C483.175,220.7 484.581,236.736 475.075,246.829Z" style="fill:rgb(39,153,240);fill-rule:nonzero;"/>
                <path d="M209.403,170.567C236.494,193.659 263.255,208.534 264.381,209.155C268.896,211.648 274.373,211.648 278.887,209.155C280.013,208.533 306.774,193.659 333.865,170.567C372.198,137.893 391.634,105.746 391.634,75.021C391.634,10.311 315.524,-24.484 271.634,19.954C227.78,-24.447 151.634,10.23 151.634,75.021C151.634,105.746 171.07,137.893 209.403,170.567ZM224.51,30.022C238.379,30.022 250.65,37.869 258.465,52.199C264.144,62.612 279.129,62.602 284.803,52.199C294.418,34.571 310.772,26.753 328.555,31.286C345.02,35.483 361.634,50.634 361.634,75.02C361.634,115.766 302.273,160.125 271.691,178.647C237.734,157.851 181.634,114.796 181.634,75.02C181.634,46.596 204.399,30.022 224.51,30.022Z" style="fill:rgb(254,85,112);fill-rule:nonzero;"/>
            </g>
        </g>
    </g>
</svg>
