<?xml version="1.0" encoding="UTF-8" standalone="no"?>
<!DOCTYPE svg PUBLIC "-//W3C//DTD SVG 1.1//EN" "http://www.w3.org/Graphics/SVG/1.1/DTD/svg11.dtd">
<svg width="100%" height="100%" viewBox="0 0 512 512" version="1.1" xmlns="http://www.w3.org/2000/svg" xmlns:xlink="http://www.w3.org/1999/xlink" xml:space="preserve" xmlns:serif="http://www.serif.com/" style="fill-rule:evenodd;clip-rule:evenodd;stroke-linejoin:round;stroke-miterlimit:2;">
    <g transform="matrix(1,0,0,1,256,256)">
        <g id="survey-filled.svg" transform="matrix(1,0,0,1,-256,-256)">
            <g>
                <g>
                    <path d="M301,0L211,0C186.186,0 166,20.186 166,45C166,69.814 186.186,90 211,90L301,90C325.814,90 346,69.814 346,45C346,20.186 325.814,0 301,0Z" style="fill:rgb(51,51,51);fill-rule:nonzero;"/>
                </g>
            </g>
            <g>
                <g>
                    <path d="M406,30L374.482,30C383.817,75.768 347.706,120 301,120L211,120C164.294,120 128.183,75.768 137.518,30L106,30C81.186,30 61,50.186 61,75L61,467C61,491.814 81.186,512 106,512L406,512C430.814,512 451,491.814 451,467L451,75C451,50.186 430.814,30 406,30ZM187.607,421.606C187.607,421.606 210.675,444.861 211.506,449.511C212.242,453.63 204.124,460.188 204.124,460.188C204.124,460.188 194.756,467.494 191.607,468.606C188.833,469.586 165.406,446.5 165.406,446.5C165.406,446.5 146.629,467.246 138.396,468.606C134.095,469.317 128.005,460.663 128.005,460.663C128.005,460.663 117.369,452.653 117.396,448.606C117.416,445.559 128.126,436.379 128.126,436.379L142.908,424.456L126.262,407.93C126.262,407.93 116.75,401.423 114.886,396.019C114.235,394.131 126.934,385.536 126.934,385.536C126.934,385.536 136.868,375.657 137.606,377.395L152.001,386.79L168.925,402.128C168.925,402.128 185.867,382.76 191.361,380.326C195.248,378.605 202.888,386.527 202.888,386.527L211.506,396.395C207.187,403.714 187.607,421.606 187.607,421.606ZM204.607,275.606L155.607,334.606C149.748,340.465 144.255,343.465 138.396,337.606L122.396,321.606C108.713,307.925 112.925,285.714 126.606,299.395L146.001,315.79L194.396,261.395C208.077,247.714 218.288,261.925 204.607,275.606ZM210.607,151.606L187.655,176.517C192.848,182.115 198.041,187.714 203.328,193.223C205.174,195.147 207.349,196.759 209.051,198.811C210.099,200.074 211.901,201.485 211.506,203.077C210.675,206.422 207.924,208.981 205.843,211.728C204.682,213.259 203.244,214.565 201.821,215.856C200.517,217.078 199.205,218.307 197.739,219.328C195.699,220.749 193.757,222.576 191.34,223.157C189.267,223.656 183.711,218.559 183.18,218.081C181.245,216.338 179.425,214.471 177.607,212.606L165.002,200.001C165.002,200.001 141.326,226.536 138.397,223.606L127.397,215.606C122.763,210.974 120.763,211.222 118.395,203.395C117.486,200.39 121.654,197.963 123.843,195.713C125.886,193.614 128.031,191.618 130.175,189.624L142.606,179.395C142.606,179.395 121.186,158.609 114.886,151.79C112.955,149.7 125.593,142.208 125.593,142.208C125.593,142.208 134.781,132.763 136.5,132.851C141.006,133.082 170.03,157.245 170.03,157.245L190.396,135.395C197.06,133.393 205.373,143.313 208.751,147.625C209.654,148.778 210.535,150.144 210.607,151.606ZM376,452L256,452C236.649,452 236.649,422 256,422L376,422C395.351,422 395.351,452 376,452ZM376,331L256,331C236.649,331 236.649,301 256,301L376,301C395.351,301 395.351,331 376,331ZM376,210L256,210C236.649,210 236.649,180 256,180L376,180C395.351,180 395.351,210 376,210Z" style="fill:rgb(51,51,51);fill-rule:nonzero;"/>
                </g>
            </g>
        </g>
        <g id="survey-filled.svg1" serif:id="survey-filled.svg">
        </g>
    </g>
</svg>
