<?xml version="1.0" encoding="UTF-8" standalone="no"?>
<!DOCTYPE svg PUBLIC "-//W3C//DTD SVG 1.1//EN" "http://www.w3.org/Graphics/SVG/1.1/DTD/svg11.dtd">
<svg width="100%" height="100%" viewBox="0 0 512 512" version="1.1" xmlns="http://www.w3.org/2000/svg" xmlns:xlink="http://www.w3.org/1999/xlink" xml:space="preserve" xmlns:serif="http://www.serif.com/" style="fill-rule:evenodd;clip-rule:evenodd;stroke-linejoin:round;stroke-miterlimit:2;">
    <g transform="matrix(1,0,0,1,256,256)">
        <g id="survey.svg" transform="matrix(1,0,0,1,-256,-256)">
            <g>
                <g>
                    <path d="M406,30L358.42,30C352.228,12.541 335.555,0 316,0L196,0C176.445,0 159.772,12.541 153.58,30L106,30C81.187,30 61,50.187 61,75L61,467C61,491.813 81.187,512 106,512L406,512C430.813,512 451,491.813 451,467L451,75C451,50.187 430.813,30 406,30ZM196,30L316,30C324.271,30 331,36.729 331,45C331,53.271 324.271,60 316,60L196,60C187.729,60 181,53.271 181,45C181,36.729 187.729,30 196,30ZM421,467C421,475.271 414.271,482 406,482L106,482C97.729,482 91,475.271 91,467L91,75C91,66.729 97.729,60 106,60L153.58,60C159.772,77.459 176.445,90 196,90L316,90C335.555,90 352.228,77.459 358.42,60L406,60C414.271,60 421,66.729 421,75L421,467Z" style="fill:rgb(51,51,51);fill-rule:nonzero;"/>
                </g>
            </g>
            <g transform="matrix(0.180186,0,0,0.180186,118.074,204.738)">
                <g id="delete-cross.svg" transform="matrix(1.59856,0,0,1.59856,250.417,-230.903)">
                    <g transform="matrix(1,0,0,1,-167.721,-167.721)">
                        <clipPath id="_clip1">
                            <rect x="0" y="0" width="335.442" height="335.442"/>
                        </clipPath>
                        <g clip-path="url(#_clip1)">
                            <g transform="matrix(1,0,0,1,-0.000775207,-0.000645511)">
                                <path d="M333.723,252.263C333.723,250.427 333.111,248.591 331.275,246.755C304.959,219.826 279.254,191.063 252.327,161.687C276.807,135.371 301.287,110.279 327.603,85.799C330.05,83.351 330.663,80.29 329.439,77.843C331.887,75.395 333.111,71.723 330.663,68.662C322.096,56.423 309.855,46.018 298.227,36.839C289.659,29.494 272.523,14.807 260.283,19.702C259.059,20.314 257.835,21.538 256.611,22.763L255.999,23.374C239.476,40.511 226.012,60.095 208.875,77.23C202.144,83.35 195.411,90.082 188.68,96.202C154.408,63.154 118.3,33.166 78.519,10.522C76.683,9.91 75.459,9.91 73.623,10.522C71.787,10.522 69.339,11.134 68.115,12.97C58.935,23.986 47.919,33.778 36.903,42.957C30.783,48.466 24.051,53.974 17.319,58.258C13.647,60.705 8.139,61.93 5.691,65.602C5.079,66.214 4.467,66.826 3.855,67.438C0.795,68.662 -1.653,72.946 1.407,75.394C34.455,107.218 65.667,140.877 97.491,173.314C85.863,182.494 73.623,191.062 61.383,200.242C43.023,213.707 25.887,228.394 16.095,248.591C13.647,249.815 11.811,252.263 12.423,255.322C16.707,271.846 33.231,286.534 44.859,298.163C52.815,306.119 71.175,328.15 83.415,325.091C84.027,325.091 84.639,324.479 85.251,323.866C87.087,325.091 88.923,325.091 90.759,323.866C121.971,303.671 148.899,274.906 174.603,246.142C189.903,259.606 205.203,273.07 219.891,287.758C229.071,296.938 244.983,318.97 259.67,318.358C260.282,318.358 260.895,318.358 261.506,317.747C262.118,321.419 265.79,325.091 270.074,322.03C293.942,306.119 324.542,288.982 334.334,259.606C336.17,256.547 335.559,254.099 333.723,252.263Z" style="fill:rgb(51,51,51);fill-rule:nonzero;"/>
                            </g>
                        </g>
                    </g>
                </g>
                <g id="check-mark.svg" transform="matrix(1.52068,0,0,1.52068,250.417,434.041)">
                    <g transform="matrix(1,0,0,1,-176.31,-176.31)">
                        <clipPath id="_clip2">
                            <rect x="0" y="0" width="352.62" height="352.62"/>
                        </clipPath>
                        <g clip-path="url(#_clip2)">
                            <g>
                                <path d="M337.222,22.952C321.31,14.384 303.562,30.908 293.158,40.7C269.291,63.956 249.095,90.884 226.45,115.364C201.358,142.292 178.102,169.22 152.398,195.537C137.71,210.225 121.798,226.137 112.006,244.497C89.974,223.076 71.002,199.82 46.522,180.849C28.774,167.385 -0.602,157.593 0.01,190.029C1.234,232.258 38.566,277.546 66.106,306.309C77.734,318.549 93.034,331.401 110.782,332.013C132.202,333.237 154.234,307.533 167.086,293.457C189.731,268.977 208.091,241.436 228.898,216.345C255.826,183.297 283.366,150.86 309.682,117.2C326.206,96.392 378.226,44.983 337.222,22.952Z" style="fill:rgb(51,51,51);fill-rule:nonzero;"/>
                            </g>
                        </g>
                    </g>
                </g>
                <g id="delete-cross.svg1" serif:id="delete-cross.svg" transform="matrix(1.59856,0,0,1.59856,250.417,1128.8)">
                    <g transform="matrix(1,0,0,1,-167.721,-167.721)">
                        <clipPath id="_clip3">
                            <rect x="0" y="0" width="335.442" height="335.442"/>
                        </clipPath>
                        <g clip-path="url(#_clip3)">
                            <g transform="matrix(1,0,0,1,-0.000775207,-0.000645511)">
                                <path d="M333.723,252.263C333.723,250.427 333.111,248.591 331.275,246.755C304.959,219.826 279.254,191.063 252.327,161.687C276.807,135.371 301.287,110.279 327.603,85.799C330.05,83.351 330.663,80.29 329.439,77.843C331.887,75.395 333.111,71.723 330.663,68.662C322.096,56.423 309.855,46.018 298.227,36.839C289.659,29.494 272.523,14.807 260.283,19.702C259.059,20.314 257.835,21.538 256.611,22.763L255.999,23.374C239.476,40.511 226.012,60.095 208.875,77.23C202.144,83.35 195.411,90.082 188.68,96.202C154.408,63.154 118.3,33.166 78.519,10.522C76.683,9.91 75.459,9.91 73.623,10.522C71.787,10.522 69.339,11.134 68.115,12.97C58.935,23.986 47.919,33.778 36.903,42.957C30.783,48.466 24.051,53.974 17.319,58.258C13.647,60.705 8.139,61.93 5.691,65.602C5.079,66.214 4.467,66.826 3.855,67.438C0.795,68.662 -1.653,72.946 1.407,75.394C34.455,107.218 65.667,140.877 97.491,173.314C85.863,182.494 73.623,191.062 61.383,200.242C43.023,213.707 25.887,228.394 16.095,248.591C13.647,249.815 11.811,252.263 12.423,255.322C16.707,271.846 33.231,286.534 44.859,298.163C52.815,306.119 71.175,328.15 83.415,325.091C84.027,325.091 84.639,324.479 85.251,323.866C87.087,325.091 88.923,325.091 90.759,323.866C121.971,303.671 148.899,274.906 174.603,246.142C189.903,259.606 205.203,273.07 219.891,287.758C229.071,296.938 244.983,318.97 259.67,318.358C260.282,318.358 260.895,318.358 261.506,317.747C262.118,321.419 265.79,325.091 270.074,322.03C293.942,306.119 324.542,288.982 334.334,259.606C336.17,256.547 335.559,254.099 333.723,252.263Z" style="fill:rgb(51,51,51);fill-rule:nonzero;"/>
                            </g>
                        </g>
                    </g>
                </g>
            </g>
            <g>
                <g>
                    <path d="M376,150L256,150C247.716,150 241,156.716 241,165C241,173.284 247.716,180 256,180L376,180C384.284,180 391,173.284 391,165C391,156.716 384.284,150 376,150Z" style="fill:rgb(51,51,51);fill-rule:nonzero;"/>
                </g>
            </g>
            <g>
                <g>
                    <path d="M376,271L256,271C247.716,271 241,277.716 241,286C241,294.284 247.716,301 256,301L376,301C384.284,301 391,294.284 391,286C391,277.716 384.284,271 376,271Z" style="fill:rgb(51,51,51);fill-rule:nonzero;"/>
                </g>
            </g>
            <g>
                <g>
                    <path d="M376,392L256,392C247.716,392 241,398.716 241,407C241,415.284 247.716,422 256,422L376,422C384.284,422 391,415.284 391,407C391,398.716 384.284,392 376,392Z" style="fill:rgb(51,51,51);fill-rule:nonzero;"/>
                </g>
            </g>
        </g>
        <g id="survey.svg1" serif:id="survey.svg">
        </g>
    </g>
</svg>
