<?xml version="1.0" encoding="UTF-8" standalone="no"?>
<!DOCTYPE svg PUBLIC "-//W3C//DTD SVG 1.1//EN" "http://www.w3.org/Graphics/SVG/1.1/DTD/svg11.dtd">
<svg width="100%" height="100%" viewBox="0 0 512 512" version="1.1" xmlns="http://www.w3.org/2000/svg" xmlns:xlink="http://www.w3.org/1999/xlink" xml:space="preserve" xmlns:serif="http://www.serif.com/" style="fill-rule:evenodd;clip-rule:evenodd;stroke-linejoin:round;stroke-miterlimit:2;">
    <g id="survey-filled.svg" transform="matrix(1,0,0,1,256,256)">
        <g transform="matrix(1,0,0,1,-256,-256)">
            <g>
                <g>
                    <path d="M301,0L211,0C186.186,0 166,20.186 166,45C166,69.814 186.186,90 211,90L301,90C325.814,90 346,69.814 346,45C346,20.186 325.814,0 301,0Z" style="fill:rgb(39,153,240);fill-rule:nonzero;"/>
                </g>
            </g>
            <g>
                <g>
                    <path d="M406,30L374.482,30C383.817,75.768 347.706,120 301,120L211,120C164.294,120 128.183,75.768 137.518,30L106,30C81.186,30 61,50.186 61,75L61,467C61,491.814 81.186,512 106,512L406,512C430.814,512 451,491.814 451,467L451,75C451,50.186 430.814,30 406,30ZM204.607,275.606L155.607,334.606C149.748,340.465 144.255,343.465 138.396,337.606L122.396,321.606C108.713,307.925 112.925,285.714 126.606,299.395L146.001,315.79L194.396,261.395C208.077,247.714 218.288,261.925 204.607,275.606ZM376,452L256,452C236.649,452 236.649,422 256,422L376,422C395.351,422 395.351,452 376,452ZM376,331L256,331C236.649,331 236.649,301 256,301L376,301C395.351,301 395.351,331 376,331ZM376,210L256,210C236.649,210 236.649,180 256,180L376,180C395.351,180 395.351,210 376,210Z" style="fill:rgb(39,153,240);fill-rule:nonzero;"/>
                </g>
            </g>
        </g>
    </g>
    <g transform="matrix(0.180186,0,0,0.180186,118.074,204.738)">
        <g id="delete-cross.svg" transform="matrix(1.59856,0,0,1.59856,250.417,-147.656)">
            <g transform="matrix(1,0,0,1,-167.721,-167.721)">
                <clipPath id="_clip1">
                    <rect x="0" y="0" width="335.442" height="335.442"/>
                </clipPath>
                <g clip-path="url(#_clip1)">
                    <g transform="matrix(1,0,0,1,-0.000775207,-0.000645511)">
                        <path d="M333.723,252.263C333.723,250.427 333.111,248.591 331.275,246.755C304.959,219.826 279.254,191.063 252.327,161.687C276.807,135.371 301.287,110.279 327.603,85.799C330.05,83.351 330.663,80.29 329.439,77.843C331.887,75.395 333.111,71.723 330.663,68.662C322.096,56.423 309.855,46.018 298.227,36.839C289.659,29.494 272.523,14.807 260.283,19.702C259.059,20.314 257.835,21.538 256.611,22.763L255.999,23.374C239.476,40.511 226.012,60.095 208.875,77.23C202.144,83.35 195.411,90.082 188.68,96.202C154.408,63.154 118.3,33.166 78.519,10.522C76.683,9.91 75.459,9.91 73.623,10.522C71.787,10.522 69.339,11.134 68.115,12.97C58.935,23.986 47.919,33.778 36.903,42.957C30.783,48.466 24.051,53.974 17.319,58.258C13.647,60.705 8.139,61.93 5.691,65.602C5.079,66.214 4.467,66.826 3.855,67.438C0.795,68.662 -1.653,72.946 1.407,75.394C34.455,107.218 65.667,140.877 97.491,173.314C85.863,182.494 73.623,191.062 61.383,200.242C43.023,213.707 25.887,228.394 16.095,248.591C13.647,249.815 11.811,252.263 12.423,255.322C16.707,271.846 33.231,286.534 44.859,298.163C52.815,306.119 71.175,328.15 83.415,325.091C84.027,325.091 84.639,324.479 85.251,323.866C87.087,325.091 88.923,325.091 90.759,323.866C121.971,303.671 148.899,274.906 174.603,246.142C189.903,259.606 205.203,273.07 219.891,287.758C229.071,296.938 244.983,318.97 259.67,318.358C260.282,318.358 260.895,318.358 261.506,317.747C262.118,321.419 265.79,325.091 270.074,322.03C293.942,306.119 324.542,288.982 334.334,259.606C336.17,256.547 335.559,254.099 333.723,252.263Z" style="fill:rgb(255,195,6);fill-rule:nonzero;"/>
                    </g>
                </g>
            </g>
        </g>
        <g id="delete-cross.svg1" serif:id="delete-cross.svg" transform="matrix(1.59856,0,0,1.59856,250.417,1212.05)">
            <g transform="matrix(1,0,0,1,-167.721,-167.721)">
                <clipPath id="_clip2">
                    <rect x="0" y="0" width="335.442" height="335.442"/>
                </clipPath>
                <g clip-path="url(#_clip2)">
                    <g transform="matrix(1,0,0,1,-0.000775207,-0.000645511)">
                        <path d="M333.723,252.263C333.723,250.427 333.111,248.591 331.275,246.755C304.959,219.826 279.254,191.063 252.327,161.687C276.807,135.371 301.287,110.279 327.603,85.799C330.05,83.351 330.663,80.29 329.439,77.843C331.887,75.395 333.111,71.723 330.663,68.662C322.096,56.423 309.855,46.018 298.227,36.839C289.659,29.494 272.523,14.807 260.283,19.702C259.059,20.314 257.835,21.538 256.611,22.763L255.999,23.374C239.476,40.511 226.012,60.095 208.875,77.23C202.144,83.35 195.411,90.082 188.68,96.202C154.408,63.154 118.3,33.166 78.519,10.522C76.683,9.91 75.459,9.91 73.623,10.522C71.787,10.522 69.339,11.134 68.115,12.97C58.935,23.986 47.919,33.778 36.903,42.957C30.783,48.466 24.051,53.974 17.319,58.258C13.647,60.705 8.139,61.93 5.691,65.602C5.079,66.214 4.467,66.826 3.855,67.438C0.795,68.662 -1.653,72.946 1.407,75.394C34.455,107.218 65.667,140.877 97.491,173.314C85.863,182.494 73.623,191.062 61.383,200.242C43.023,213.707 25.887,228.394 16.095,248.591C13.647,249.815 11.811,252.263 12.423,255.322C16.707,271.846 33.231,286.534 44.859,298.163C52.815,306.119 71.175,328.15 83.415,325.091C84.027,325.091 84.639,324.479 85.251,323.866C87.087,325.091 88.923,325.091 90.759,323.866C121.971,303.671 148.899,274.906 174.603,246.142C189.903,259.606 205.203,273.07 219.891,287.758C229.071,296.938 244.983,318.97 259.67,318.358C260.282,318.358 260.895,318.358 261.506,317.747C262.118,321.419 265.79,325.091 270.074,322.03C293.942,306.119 324.542,288.982 334.334,259.606C336.17,256.547 335.559,254.099 333.723,252.263Z" style="fill:rgb(255,195,6);fill-rule:nonzero;"/>
                    </g>
                </g>
            </g>
        </g>
    </g>
</svg>
