<svg id="Layer_1" enable-background="new 0 0 512 512" height="512" viewBox="0 0 512 512" width="512" xmlns="http://www.w3.org/2000/svg"><path d="m505.409 131.112c-4.122-2.79-9.358-3.354-13.98-1.506l-110.096 44.038v164.712l110.096 44.038c1.798.719 3.688 1.073 5.57 1.073 2.956 0 5.892-.874 8.41-2.579 4.122-2.791 6.591-7.443 6.591-12.421v-224.934c0-4.977-2.469-9.63-6.591-12.421z"/><path d="m304.2 415.6h-257.066c-25.989 0-47.134-21.144-47.134-47.133v-224.934c0-25.989 21.145-47.133 47.134-47.133h257.066c25.989 0 47.133 21.144 47.133 47.133v224.934c0 25.989-21.144 47.133-47.133 47.133z"/></svg>